<mxfile host="app.diagrams.net" modified="2023-10-12T02:49:31.526Z" agent="Mozilla/5.0 (X11; Linux x86_64) AppleWebKit/537.36 (KHTML, like Gecko) Chrome/118.0.0.0 Safari/537.36" etag="upl9CQxqOITzV-zM-AgL" version="22.0.4" type="device">
  <diagram name="Trang-1" id="NIkQXQlLEoq4ljR23Amg">
    <mxGraphModel dx="5111" dy="3027" grid="1" gridSize="10" guides="1" tooltips="1" connect="1" arrows="1" fold="1" page="1" pageScale="1" pageWidth="827" pageHeight="1169" math="0" shadow="0">
      <root>
        <mxCell id="0" />
        <mxCell id="1" parent="0" />
        <mxCell id="myoTNgwMXQTdCBW9FwJa-1" value="&lt;font style=&quot;font-size: 13px;&quot;&gt;Production Account&lt;/font&gt;&lt;span style=&quot;font-family: Ember; font-size: 11.6667px;&quot;&gt;&amp;nbsp;&lt;/span&gt;&lt;span style=&quot;&quot;&gt;&lt;br&gt;&lt;/span&gt;" style="points=[[0,0],[0.25,0],[0.5,0],[0.75,0],[1,0],[1,0.25],[1,0.5],[1,0.75],[1,1],[0.75,1],[0.5,1],[0.25,1],[0,1],[0,0.75],[0,0.5],[0,0.25]];outlineConnect=0;html=1;whiteSpace=wrap;fontSize=12;fontStyle=0;container=0;pointerEvents=0;collapsible=0;recursiveResize=0;shape=mxgraph.aws4.group;grIcon=mxgraph.aws4.group_account;strokeColor=#82b366;fillColor=#d5e8d4;verticalAlign=top;align=left;spacingLeft=30;dashed=0;labelBackgroundColor=none;" parent="1" vertex="1">
          <mxGeometry x="-440" y="-500" width="1740" height="1330" as="geometry" />
        </mxCell>
        <mxCell id="myoTNgwMXQTdCBW9FwJa-2" value="AWS Region - Asia Pacific (Singapore)" style="points=[[0,0],[0.25,0],[0.5,0],[0.75,0],[1,0],[1,0.25],[1,0.5],[1,0.75],[1,1],[0.75,1],[0.5,1],[0.25,1],[0,1],[0,0.75],[0,0.5],[0,0.25]];outlineConnect=0;html=1;whiteSpace=wrap;fontSize=12;fontStyle=0;container=0;pointerEvents=0;collapsible=0;recursiveResize=0;shape=mxgraph.aws4.group;grIcon=mxgraph.aws4.group_region;verticalAlign=top;align=left;spacingLeft=30;dashed=1;" parent="1" vertex="1">
          <mxGeometry x="-300" y="-330" width="1520" height="1070" as="geometry" />
        </mxCell>
        <mxCell id="myoTNgwMXQTdCBW9FwJa-3" value="&lt;font style=&quot;font-size: 14px;&quot;&gt;Availability zone&amp;nbsp; (&lt;span style=&quot;color: rgb(85, 85, 85); font-family: Montserrat, Helvetica, Arial, Lucida, sans-serif; background-color: rgb(255, 255, 255);&quot;&gt;ap-southeast-1a)&lt;/span&gt;&lt;/font&gt;" style="sketch=0;outlineConnect=0;html=1;whiteSpace=wrap;fontSize=12;fontStyle=0;shape=mxgraph.aws4.group;grIcon=mxgraph.aws4.group_availability_zone;strokeColor=#7EA6E0;fillColor=none;verticalAlign=top;align=left;spacingLeft=30;dashed=1;container=0;" parent="1" vertex="1">
          <mxGeometry x="131.75" y="-290" width="396.5" height="770" as="geometry" />
        </mxCell>
        <mxCell id="myoTNgwMXQTdCBW9FwJa-5" value="&lt;span style=&quot;font-size: 14px;&quot;&gt;Availability zone&amp;nbsp; (&lt;/span&gt;&lt;span style=&quot;font-size: 14px; color: rgb(85, 85, 85); font-family: Montserrat, Helvetica, Arial, Lucida, sans-serif; background-color: rgb(255, 255, 255);&quot;&gt;ap-southeast-1b)&lt;/span&gt;" style="sketch=0;outlineConnect=0;html=1;whiteSpace=wrap;fontSize=12;fontStyle=0;shape=mxgraph.aws4.group;grIcon=mxgraph.aws4.group_availability_zone;strokeColor=#6c8ebf;fillColor=none;verticalAlign=top;align=left;spacingLeft=30;dashed=1;container=0;" parent="1" vertex="1">
          <mxGeometry x="587" y="-290" width="420" height="780" as="geometry" />
        </mxCell>
        <mxCell id="myoTNgwMXQTdCBW9FwJa-6" value="&lt;font color=&quot;#000000&quot;&gt;VPC&lt;br&gt;&lt;/font&gt;" style="points=[[0,0],[0.25,0],[0.5,0],[0.75,0],[1,0],[1,0.25],[1,0.5],[1,0.75],[1,1],[0.75,1],[0.5,1],[0.25,1],[0,1],[0,0.75],[0,0.5],[0,0.25]];outlineConnect=0;html=1;whiteSpace=wrap;fontSize=12;fontStyle=0;container=0;pointerEvents=0;collapsible=0;recursiveResize=0;shape=mxgraph.aws4.group;grIcon=mxgraph.aws4.group_vpc;strokeColor=#82b366;fillColor=none;verticalAlign=top;align=left;spacingLeft=30;dashed=0;" parent="1" vertex="1">
          <mxGeometry x="-10" y="-250" width="1170" height="910" as="geometry" />
        </mxCell>
        <mxCell id="myoTNgwMXQTdCBW9FwJa-7" value="&lt;font style=&quot;font-size: 12px;&quot;&gt;Public subnet&lt;br&gt;&lt;/font&gt;" style="points=[[0,0],[0.25,0],[0.5,0],[0.75,0],[1,0],[1,0.25],[1,0.5],[1,0.75],[1,1],[0.75,1],[0.5,1],[0.25,1],[0,1],[0,0.75],[0,0.5],[0,0.25]];outlineConnect=0;gradientColor=none;html=1;whiteSpace=wrap;fontSize=12;fontStyle=0;container=0;pointerEvents=0;collapsible=0;recursiveResize=0;shape=mxgraph.aws4.group;grIcon=mxgraph.aws4.group_security_group;grStroke=0;strokeColor=#248814;fillColor=#E9F3E6;verticalAlign=top;align=left;spacingLeft=30;fontColor=#248814;dashed=0;" parent="1" vertex="1">
          <mxGeometry x="640" y="-190" width="340" height="160" as="geometry" />
        </mxCell>
        <mxCell id="myoTNgwMXQTdCBW9FwJa-10" value="&lt;font style=&quot;font-size: 12px;&quot;&gt;Private subnet&lt;br&gt;&lt;/font&gt;" style="points=[[0,0],[0.25,0],[0.5,0],[0.75,0],[1,0],[1,0.25],[1,0.5],[1,0.75],[1,1],[0.75,1],[0.5,1],[0.25,1],[0,1],[0,0.75],[0,0.5],[0,0.25]];outlineConnect=0;gradientColor=none;html=1;whiteSpace=wrap;fontSize=12;fontStyle=0;container=0;pointerEvents=0;collapsible=0;recursiveResize=0;shape=mxgraph.aws4.group;grIcon=mxgraph.aws4.group_security_group;grStroke=0;strokeColor=#147EBA;fillColor=#E6F2F8;verticalAlign=top;align=left;spacingLeft=30;fontColor=#147EBA;dashed=0;" parent="1" vertex="1">
          <mxGeometry x="640" width="340" height="440" as="geometry" />
        </mxCell>
        <mxCell id="myoTNgwMXQTdCBW9FwJa-15" value="&lt;font style=&quot;font-size: 12px;&quot;&gt;Public subnet&lt;br&gt;&lt;/font&gt;" style="points=[[0,0],[0.25,0],[0.5,0],[0.75,0],[1,0],[1,0.25],[1,0.5],[1,0.75],[1,1],[0.75,1],[0.5,1],[0.25,1],[0,1],[0,0.75],[0,0.5],[0,0.25]];outlineConnect=0;gradientColor=none;html=1;whiteSpace=wrap;fontSize=12;fontStyle=0;container=0;pointerEvents=0;collapsible=0;recursiveResize=0;shape=mxgraph.aws4.group;grIcon=mxgraph.aws4.group_security_group;grStroke=0;strokeColor=#248814;fillColor=#E9F3E6;verticalAlign=top;align=left;spacingLeft=30;fontColor=#248814;dashed=0;" parent="1" vertex="1">
          <mxGeometry x="160" y="-190" width="340" height="160" as="geometry" />
        </mxCell>
        <mxCell id="myoTNgwMXQTdCBW9FwJa-16" value="&lt;font style=&quot;font-size: 11px;&quot;&gt;Private subnet&lt;br&gt;&lt;/font&gt;" style="points=[[0,0],[0.25,0],[0.5,0],[0.75,0],[1,0],[1,0.25],[1,0.5],[1,0.75],[1,1],[0.75,1],[0.5,1],[0.25,1],[0,1],[0,0.75],[0,0.5],[0,0.25]];outlineConnect=0;gradientColor=none;html=1;whiteSpace=wrap;fontSize=12;fontStyle=0;container=0;pointerEvents=0;collapsible=0;recursiveResize=0;shape=mxgraph.aws4.group;grIcon=mxgraph.aws4.group_security_group;grStroke=0;strokeColor=#147EBA;fillColor=#E6F2F8;verticalAlign=top;align=left;spacingLeft=30;fontColor=#147EBA;dashed=0;" parent="1" vertex="1">
          <mxGeometry x="160" y="-2" width="340" height="452" as="geometry" />
        </mxCell>
        <mxCell id="myoTNgwMXQTdCBW9FwJa-37" value="Internet GateWay&lt;br&gt;(Inbound)" style="sketch=0;outlineConnect=0;fontColor=#232F3E;gradientColor=none;fillColor=#4D27AA;strokeColor=none;dashed=0;verticalLabelPosition=bottom;verticalAlign=top;align=center;html=1;fontSize=12;fontStyle=0;aspect=fixed;pointerEvents=1;shape=mxgraph.aws4.internet_gateway;labelBackgroundColor=none;" parent="1" vertex="1">
          <mxGeometry x="-49" y="37" width="78" height="78" as="geometry" />
        </mxCell>
        <mxCell id="myoTNgwMXQTdCBW9FwJa-43" value="RDS for MySQL&amp;nbsp;&lt;br&gt;(Multi AZ, Auto backup, Master)" style="sketch=0;points=[[0,0,0],[0.25,0,0],[0.5,0,0],[0.75,0,0],[1,0,0],[0,1,0],[0.25,1,0],[0.5,1,0],[0.75,1,0],[1,1,0],[0,0.25,0],[0,0.5,0],[0,0.75,0],[1,0.25,0],[1,0.5,0],[1,0.75,0]];outlineConnect=0;fontColor=#232F3E;gradientColor=#4D72F3;gradientDirection=north;fillColor=#3334B9;strokeColor=#ffffff;dashed=0;verticalLabelPosition=bottom;verticalAlign=top;align=center;html=1;fontSize=12;fontStyle=0;aspect=fixed;shape=mxgraph.aws4.resourceIcon;resIcon=mxgraph.aws4.rds;" parent="1" vertex="1">
          <mxGeometry x="286.5" y="262" width="78" height="78" as="geometry" />
        </mxCell>
        <mxCell id="myoTNgwMXQTdCBW9FwJa-44" value="RDS for MySQL&amp;nbsp;&lt;br&gt;(Multi AZ, Auto backup, Slave)" style="sketch=0;points=[[0,0,0],[0.25,0,0],[0.5,0,0],[0.75,0,0],[1,0,0],[0,1,0],[0.25,1,0],[0.5,1,0],[0.75,1,0],[1,1,0],[0,0.25,0],[0,0.5,0],[0,0.75,0],[1,0.25,0],[1,0.5,0],[1,0.75,0]];outlineConnect=0;fontColor=#232F3E;gradientColor=#4D72F3;gradientDirection=north;fillColor=#3334B9;strokeColor=#ffffff;dashed=0;verticalLabelPosition=bottom;verticalAlign=top;align=center;html=1;fontSize=12;fontStyle=0;aspect=fixed;shape=mxgraph.aws4.resourceIcon;resIcon=mxgraph.aws4.rds;" parent="1" vertex="1">
          <mxGeometry x="766" y="262" width="78" height="78" as="geometry" />
        </mxCell>
        <mxCell id="myoTNgwMXQTdCBW9FwJa-84" value="Internet GateWay&lt;br&gt;(Outbound)" style="sketch=0;outlineConnect=0;fontColor=#232F3E;gradientColor=none;fillColor=#4D27AA;strokeColor=none;dashed=0;verticalLabelPosition=bottom;verticalAlign=top;align=center;html=1;fontSize=12;fontStyle=0;aspect=fixed;pointerEvents=1;shape=mxgraph.aws4.internet_gateway;labelBackgroundColor=none;" parent="1" vertex="1">
          <mxGeometry x="-49" y="200" width="78" height="78" as="geometry" />
        </mxCell>
        <mxCell id="myoTNgwMXQTdCBW9FwJa-97" value="Amazone EFS&lt;br&gt;(Elastic File System)" style="sketch=0;points=[[0,0,0],[0.25,0,0],[0.5,0,0],[0.75,0,0],[1,0,0],[0,1,0],[0.25,1,0],[0.5,1,0],[0.75,1,0],[1,1,0],[0,0.25,0],[0,0.5,0],[0,0.75,0],[1,0.25,0],[1,0.5,0],[1,0.75,0]];outlineConnect=0;fontColor=#232F3E;fillColor=#7AA116;strokeColor=#ffffff;dashed=0;verticalLabelPosition=bottom;verticalAlign=top;align=center;html=1;fontSize=12;fontStyle=0;aspect=fixed;shape=mxgraph.aws4.resourceIcon;resIcon=mxgraph.aws4.elastic_file_system;" parent="1" vertex="1">
          <mxGeometry x="520" y="530" width="78" height="78" as="geometry" />
        </mxCell>
        <mxCell id="myoTNgwMXQTdCBW9FwJa-103" value="" style="rounded=0;whiteSpace=wrap;html=1;fillColor=none;dashed=1;" parent="1" vertex="1">
          <mxGeometry x="187" y="50" width="923" height="150" as="geometry" />
        </mxCell>
        <mxCell id="myoTNgwMXQTdCBW9FwJa-100" value="EC2&lt;br&gt;(WordPress Server 02)" style="sketch=0;points=[[0,0,0],[0.25,0,0],[0.5,0,0],[0.75,0,0],[1,0,0],[0,1,0],[0.25,1,0],[0.5,1,0],[0.75,1,0],[1,1,0],[0,0.25,0],[0,0.5,0],[0,0.75,0],[1,0.25,0],[1,0.5,0],[1,0.75,0]];outlineConnect=0;fontColor=#232F3E;fillColor=#ED7100;strokeColor=#ffffff;dashed=0;verticalLabelPosition=bottom;verticalAlign=top;align=center;html=1;fontSize=12;fontStyle=0;aspect=fixed;shape=mxgraph.aws4.resourceIcon;resIcon=mxgraph.aws4.ec2;" parent="1" vertex="1">
          <mxGeometry x="771" y="77" width="78" height="78" as="geometry" />
        </mxCell>
        <mxCell id="myoTNgwMXQTdCBW9FwJa-135" style="edgeStyle=orthogonalEdgeStyle;rounded=0;orthogonalLoop=1;jettySize=auto;html=1;" parent="1" source="myoTNgwMXQTdCBW9FwJa-102" target="myoTNgwMXQTdCBW9FwJa-104" edge="1">
          <mxGeometry relative="1" as="geometry" />
        </mxCell>
        <mxCell id="myoTNgwMXQTdCBW9FwJa-102" value="EC2&lt;br&gt;(WordPress Server 01)" style="sketch=0;points=[[0,0,0],[0.25,0,0],[0.5,0,0],[0.75,0,0],[1,0,0],[0,1,0],[0.25,1,0],[0.5,1,0],[0.75,1,0],[1,1,0],[0,0.25,0],[0,0.5,0],[0,0.75,0],[1,0.25,0],[1,0.5,0],[1,0.75,0]];outlineConnect=0;fontColor=#232F3E;fillColor=#ED7100;strokeColor=#ffffff;dashed=0;verticalLabelPosition=bottom;verticalAlign=top;align=center;html=1;fontSize=12;fontStyle=0;aspect=fixed;shape=mxgraph.aws4.resourceIcon;resIcon=mxgraph.aws4.ec2;" parent="1" vertex="1">
          <mxGeometry x="286.5" y="78" width="78" height="78" as="geometry" />
        </mxCell>
        <mxCell id="myoTNgwMXQTdCBW9FwJa-22" value="EC2 ASG" style="sketch=0;points=[[0,0,0],[0.25,0,0],[0.5,0,0],[0.75,0,0],[1,0,0],[0,1,0],[0.25,1,0],[0.5,1,0],[0.75,1,0],[1,1,0],[0,0.25,0],[0,0.5,0],[0,0.75,0],[1,0.25,0],[1,0.5,0],[1,0.75,0]];outlineConnect=0;fontColor=#232F3E;gradientColor=#F78E04;gradientDirection=north;fillColor=#D05C17;strokeColor=#ffffff;dashed=0;verticalLabelPosition=bottom;verticalAlign=top;align=center;html=1;fontSize=12;fontStyle=0;aspect=fixed;shape=mxgraph.aws4.resourceIcon;resIcon=mxgraph.aws4.auto_scaling2;labelBackgroundColor=none;" parent="1" vertex="1">
          <mxGeometry x="1053" y="143" width="57" height="57" as="geometry" />
        </mxCell>
        <mxCell id="myoTNgwMXQTdCBW9FwJa-134" style="edgeStyle=orthogonalEdgeStyle;rounded=0;orthogonalLoop=1;jettySize=auto;html=1;" parent="1" source="myoTNgwMXQTdCBW9FwJa-104" target="myoTNgwMXQTdCBW9FwJa-84" edge="1">
          <mxGeometry relative="1" as="geometry">
            <Array as="points">
              <mxPoint x="110" y="-101" />
              <mxPoint x="110" y="239" />
            </Array>
          </mxGeometry>
        </mxCell>
        <mxCell id="myoTNgwMXQTdCBW9FwJa-104" value="NAT Gateway" style="sketch=0;outlineConnect=0;fontColor=#232F3E;gradientColor=none;fillColor=#8C4FFF;strokeColor=none;dashed=0;verticalLabelPosition=bottom;verticalAlign=top;align=center;html=1;fontSize=12;fontStyle=0;aspect=fixed;pointerEvents=1;shape=mxgraph.aws4.nat_gateway;" parent="1" vertex="1">
          <mxGeometry x="286.5" y="-140" width="78" height="78" as="geometry" />
        </mxCell>
        <mxCell id="myoTNgwMXQTdCBW9FwJa-114" style="rounded=0;orthogonalLoop=1;jettySize=auto;html=1;exitX=0.5;exitY=1;exitDx=0;exitDy=0;exitPerimeter=0;entryX=0.5;entryY=0;entryDx=0;entryDy=0;entryPerimeter=0;" parent="1" source="myoTNgwMXQTdCBW9FwJa-105" target="myoTNgwMXQTdCBW9FwJa-102" edge="1">
          <mxGeometry relative="1" as="geometry" />
        </mxCell>
        <mxCell id="myoTNgwMXQTdCBW9FwJa-105" value="&lt;font style=&quot;font-size: 11px;&quot;&gt;ALB&lt;br&gt;(Application LoadBalancer)&lt;br&gt;&lt;/font&gt;" style="outlineConnect=0;dashed=0;verticalLabelPosition=bottom;verticalAlign=top;align=center;html=1;shape=mxgraph.aws3.application_load_balancer;fillColor=#F58536;gradientColor=none;labelBackgroundColor=none;fontSize=12;fontColor=default;" parent="1" vertex="1">
          <mxGeometry x="524.5" y="-137" width="69" height="72" as="geometry" />
        </mxCell>
        <mxCell id="myoTNgwMXQTdCBW9FwJa-106" value="NAT Gateway" style="sketch=0;outlineConnect=0;fontColor=#232F3E;gradientColor=none;fillColor=#8C4FFF;strokeColor=none;dashed=0;verticalLabelPosition=bottom;verticalAlign=top;align=center;html=1;fontSize=12;fontStyle=0;aspect=fixed;pointerEvents=1;shape=mxgraph.aws4.nat_gateway;" parent="1" vertex="1">
          <mxGeometry x="766" y="-140" width="78" height="78" as="geometry" />
        </mxCell>
        <mxCell id="myoTNgwMXQTdCBW9FwJa-107" style="rounded=0;orthogonalLoop=1;jettySize=auto;html=1;entryX=0.25;entryY=0;entryDx=0;entryDy=0;entryPerimeter=0;exitX=0.5;exitY=1;exitDx=0;exitDy=0;exitPerimeter=0;" parent="1" source="myoTNgwMXQTdCBW9FwJa-102" target="myoTNgwMXQTdCBW9FwJa-97" edge="1">
          <mxGeometry relative="1" as="geometry">
            <mxPoint x="540" y="520" as="targetPoint" />
          </mxGeometry>
        </mxCell>
        <mxCell id="myoTNgwMXQTdCBW9FwJa-108" style="rounded=0;orthogonalLoop=1;jettySize=auto;html=1;exitX=0.5;exitY=1;exitDx=0;exitDy=0;exitPerimeter=0;" parent="1" source="myoTNgwMXQTdCBW9FwJa-100" edge="1">
          <mxGeometry relative="1" as="geometry">
            <mxPoint x="810" y="150" as="sourcePoint" />
            <mxPoint x="580" y="530" as="targetPoint" />
          </mxGeometry>
        </mxCell>
        <mxCell id="myoTNgwMXQTdCBW9FwJa-109" style="edgeStyle=orthogonalEdgeStyle;rounded=0;orthogonalLoop=1;jettySize=auto;html=1;entryX=0.5;entryY=0;entryDx=0;entryDy=0;entryPerimeter=0;" parent="1" source="myoTNgwMXQTdCBW9FwJa-102" target="myoTNgwMXQTdCBW9FwJa-43" edge="1">
          <mxGeometry relative="1" as="geometry">
            <mxPoint x="320" y="260" as="targetPoint" />
          </mxGeometry>
        </mxCell>
        <mxCell id="myoTNgwMXQTdCBW9FwJa-111" style="rounded=0;orthogonalLoop=1;jettySize=auto;html=1;entryX=0.611;entryY=-0.011;entryDx=0;entryDy=0;entryPerimeter=0;jumpStyle=arc;exitX=0.5;exitY=1;exitDx=0;exitDy=0;exitPerimeter=0;" parent="1" source="myoTNgwMXQTdCBW9FwJa-100" target="myoTNgwMXQTdCBW9FwJa-43" edge="1">
          <mxGeometry relative="1" as="geometry" />
        </mxCell>
        <mxCell id="myoTNgwMXQTdCBW9FwJa-112" style="edgeStyle=orthogonalEdgeStyle;rounded=0;orthogonalLoop=1;jettySize=auto;html=1;entryX=0.5;entryY=1;entryDx=0;entryDy=0;entryPerimeter=0;exitX=0.5;exitY=1;exitDx=0;exitDy=0;exitPerimeter=0;dashed=1;" parent="1" source="myoTNgwMXQTdCBW9FwJa-43" target="myoTNgwMXQTdCBW9FwJa-44" edge="1">
          <mxGeometry relative="1" as="geometry">
            <Array as="points">
              <mxPoint x="326" y="380" />
              <mxPoint x="805" y="380" />
            </Array>
          </mxGeometry>
        </mxCell>
        <mxCell id="myoTNgwMXQTdCBW9FwJa-113" value="Sync data" style="text;html=1;strokeColor=none;fillColor=none;align=center;verticalAlign=middle;whiteSpace=wrap;rounded=0;" parent="1" vertex="1">
          <mxGeometry x="524.5" y="360" width="60" height="20" as="geometry" />
        </mxCell>
        <mxCell id="myoTNgwMXQTdCBW9FwJa-115" style="rounded=0;orthogonalLoop=1;jettySize=auto;html=1;entryX=0.5;entryY=0;entryDx=0;entryDy=0;entryPerimeter=0;exitX=0.5;exitY=1;exitDx=0;exitDy=0;exitPerimeter=0;" parent="1" source="myoTNgwMXQTdCBW9FwJa-105" target="myoTNgwMXQTdCBW9FwJa-100" edge="1">
          <mxGeometry relative="1" as="geometry" />
        </mxCell>
        <mxCell id="myoTNgwMXQTdCBW9FwJa-133" style="edgeStyle=orthogonalEdgeStyle;rounded=0;orthogonalLoop=1;jettySize=auto;html=1;" parent="1" source="myoTNgwMXQTdCBW9FwJa-125" target="myoTNgwMXQTdCBW9FwJa-37" edge="1">
          <mxGeometry relative="1" as="geometry" />
        </mxCell>
        <mxCell id="myoTNgwMXQTdCBW9FwJa-125" value="&lt;font style=&quot;font-size: 25px;&quot;&gt;Public Internet&lt;/font&gt;" style="points=[[0,0],[0.25,0],[0.5,0],[0.75,0],[1,0],[1,0.25],[1,0.5],[1,0.75],[1,1],[0.75,1],[0.5,1],[0.25,1],[0,1],[0,0.75],[0,0.5],[0,0.25]];outlineConnect=0;html=1;whiteSpace=wrap;fontSize=12;fontStyle=0;container=0;pointerEvents=0;collapsible=0;recursiveResize=0;shape=mxgraph.aws4.group;grIcon=mxgraph.aws4.group_corporate_data_center;verticalAlign=top;align=left;spacingLeft=30;dashed=0;fillColor=#f5f5f5;fontColor=#333333;strokeColor=#666666;" parent="1" vertex="1">
          <mxGeometry x="-1239.74" y="-31.169999999999998" width="466.74" height="214.33" as="geometry" />
        </mxCell>
        <mxCell id="myoTNgwMXQTdCBW9FwJa-127" style="edgeStyle=orthogonalEdgeStyle;rounded=0;jumpStyle=gap;orthogonalLoop=1;jettySize=auto;html=1;entryX=0;entryY=0.5;entryDx=0;entryDy=0;entryPerimeter=0;strokeColor=#000000;fontSize=12;fontColor=#000000;endArrow=classic;endFill=1;" parent="1" source="myoTNgwMXQTdCBW9FwJa-128" edge="1">
          <mxGeometry relative="1" as="geometry">
            <mxPoint x="-959.4699999999999" y="73.74999999999957" as="targetPoint" />
          </mxGeometry>
        </mxCell>
        <mxCell id="myoTNgwMXQTdCBW9FwJa-128" value="&lt;span style=&quot;background-color: rgb(248, 249, 250);&quot;&gt;End User&amp;nbsp;&lt;/span&gt;" style="html=1;verticalLabelPosition=bottom;align=center;labelBackgroundColor=#ffffff;verticalAlign=top;strokeWidth=2;strokeColor=#0080F0;shadow=0;dashed=0;shape=mxgraph.ios7.icons.user;labelBorderColor=none;fontSize=12;fontColor=#000000;fillColor=none;" parent="1" vertex="1">
          <mxGeometry x="-1155.9499999999996" y="34.25000000000003" width="78" height="79" as="geometry" />
        </mxCell>
        <mxCell id="myoTNgwMXQTdCBW9FwJa-129" value="WebApp" style="shape=image;verticalLabelPosition=bottom;labelBackgroundColor=none;verticalAlign=top;aspect=fixed;imageAspect=0;image=data:image/svg+xml,PHN2ZyB4bWxuczpjYz0iaHR0cDovL2NyZWF0aXZlY29tbW9ucy5vcmcvbnMjIiB4bWxuczpkYz0iaHR0cDovL3B1cmwub3JnL2RjL2VsZW1lbnRzLzEuMS8iIHhtbG5zOmlua3NjYXBlPSJodHRwOi8vd3d3Lmlua3NjYXBlLm9yZy9uYW1lc3BhY2VzL2lua3NjYXBlIiB4bWxuczpyZGY9Imh0dHA6Ly93d3cudzMub3JnLzE5OTkvMDIvMjItcmRmLXN5bnRheC1ucyMiIHhtbG5zOnNvZGlwb2RpPSJodHRwOi8vc29kaXBvZGkuc291cmNlZm9yZ2UubmV0L0RURC9zb2RpcG9kaS0wLmR0ZCIgeG1sbnM6c3ZnPSJodHRwOi8vd3d3LnczLm9yZy8yMDAwL3N2ZyIgeG1sbnM9Imh0dHA6Ly93d3cudzMub3JnLzIwMDAvc3ZnIiB4bWxuczp4bGluaz0iaHR0cDovL3d3dy53My5vcmcvMTk5OS94bGluayIgdmVyc2lvbj0iMS4xIiBpZD0ic3ZnMTE1MTUxIiBpbmtzY2FwZTp2ZXJzaW9uPSIwLjkyLjMgKDI0MDU1NDYsIDIwMTgtMDMtMTEpIiBzb2RpcG9kaTpkb2NuYW1lPSJ3ZWJzaXRlLnN2ZyIgeD0iMHB4IiB5PSIwcHgiIHZpZXdCb3g9IjAgMCA5NS4yNSA3Mi42NCIgc3R5bGU9ImVuYWJsZS1iYWNrZ3JvdW5kOm5ldyAwIDAgOTUuMjUgNzIuNjQ7IiB4bWw6c3BhY2U9InByZXNlcnZlIj4mI3hhOzxzb2RpcG9kaTpuYW1lZHZpZXcgYm9yZGVyY29sb3I9IiM2NjY2NjYiIGJvcmRlcm9wYWNpdHk9IjEiIGZpdC1tYXJnaW4tYm90dG9tPSIwIiBmaXQtbWFyZ2luLWxlZnQ9IjAiIGZpdC1tYXJnaW4tcmlnaHQ9IjAiIGZpdC1tYXJnaW4tdG9wPSIwIiBncmlkdG9sZXJhbmNlPSIxMCIgZ3VpZGV0b2xlcmFuY2U9IjEwIiBpZD0ibmFtZWR2aWV3MTE1MTUzIiBpbmtzY2FwZTpjdXJyZW50LWxheWVyPSJzdmcxMTUxNTEiIGlua3NjYXBlOmN4PSI2My41IiBpbmtzY2FwZTpjeT0iNDguNDI1MzAzIiBpbmtzY2FwZTpwYWdlb3BhY2l0eT0iMCIgaW5rc2NhcGU6cGFnZXNoYWRvdz0iMiIgaW5rc2NhcGU6d2luZG93LWhlaWdodD0iMTAxNyIgaW5rc2NhcGU6d2luZG93LW1heGltaXplZD0iMSIgaW5rc2NhcGU6d2luZG93LXdpZHRoPSIxOTIwIiBpbmtzY2FwZTp3aW5kb3cteD0iLTgiIGlua3NjYXBlOndpbmRvdy15PSItOCIgaW5rc2NhcGU6em9vbT0iOC43NzA3NTgxIiBvYmplY3R0b2xlcmFuY2U9IjEwIiBwYWdlY29sb3I9IiNmZmZmZmYiIHNob3dncmlkPSJmYWxzZSI+JiN4YTsJPC9zb2RpcG9kaTpuYW1lZHZpZXc+JiN4YTs8ZyBpZD0iZzExNTE0OSIgdHJhbnNmb3JtPSJ0cmFuc2xhdGUoLTAuNzUsLTAuNzQ1NTUxNDcpIj4mI3hhOwk8dGl0bGUgaWQ9InRpdGxlMTE0ODExIj5QYWdlLTE8L3RpdGxlPiYjeGE7CTxnIGlkPSJncm91cDczNzQtMSIgdHJhbnNmb3JtPSJ0cmFuc2xhdGUoMC43NSwtMC43NSkiPiYjeGE7CQk8dGl0bGUgaWQ9InRpdGxlMTE0ODEzIj5XZWJzaXRlPC90aXRsZT4mI3hhOwkJPGcgaWQ9InNoYXBlNzM3NS0yIiB0cmFuc2Zvcm09InRyYW5zbGF0ZSg0My44MzUzLC01NS40NDI3KSI+JiN4YTsJCQk8dGl0bGUgaWQ9InRpdGxlMTE0ODE1Ij5TaGVldC43Mzc1PC90aXRsZT4mI3hhOwkJCTxwYXRoIGlkPSJwYXRoMTE0ODE3IiBpbmtzY2FwZTpjb25uZWN0b3ItY3VydmF0dXJlPSIwIiBzdHlsZT0iZmlsbDojQkZFNUU4OyIgZD0iTTIuNjQsNjguODZjMS40NiwwLDIuNjQsMS4xOCwyLjY0LDIuNjQgICAgIHMtMS4xOCwyLjY0LTIuNjQsMi42NFMwLDcyLjk2LDAsNzEuNVMxLjE4LDY4Ljg2LDIuNjQsNjguODZ6Ii8+JiN4YTsJCTwvZz4mI3hhOwkJPGcgaWQ9InNoYXBlNzM3Ni00IiB0cmFuc2Zvcm09InRyYW5zbGF0ZSgzMS4wMDA3LC0yLjQxMzgzKSI+JiN4YTsJCQk8dGl0bGUgaWQ9InRpdGxlMTE0ODIwIj5TaGVldC43Mzc2PC90aXRsZT4mI3hhOwkJCTxwYXRoIGlkPSJwYXRoMTE0ODIyIiBpbmtzY2FwZTpjb25uZWN0b3ItY3VydmF0dXJlPSIwIiBzdHlsZT0iZmlsbDojQTdBOUFDOyIgZD0iTTI2LjU0LDY0LjAySDE2LjQ3SDYuMzkgICAgIGMwLDAsMS44NCw5LjE3LTYuMzksMTAuMTJoMTYuNDdoMTYuNDZDMjQuNyw3My4xOSwyNi41NCw2NC4wMiwyNi41NCw2NC4wMnoiLz4mI3hhOwkJPC9nPiYjeGE7CQk8ZyBpZD0ic2hhcGU3Mzc3LTYiIHRyYW5zZm9ybT0idHJhbnNsYXRlKDI5LjM3NTQpIj4mI3hhOwkJCTx0aXRsZSBpZD0idGl0bGUxMTQ4MjUiPlNoZWV0LjczNzc8L3RpdGxlPiYjeGE7CQkJPHJlY3QgaWQ9InJlY3QxMTQ4MjciIHg9IjAiIHk9IjcxLjcyIiBzdHlsZT0iZmlsbDojQkZCRkJGOyIgd2lkdGg9IjM2LjE5IiBoZWlnaHQ9IjIuNDEiLz4mI3hhOwkJPC9nPiYjeGE7CQk8ZyBpZD0ic2hhcGU3Mzc4LTgiIHRyYW5zZm9ybT0idHJhbnNsYXRlKDAsLTE1Ljk3NDYpIj4mI3hhOwkJCTx0aXRsZSBpZD0idGl0bGUxMTQ4MzAiPlNoZWV0LjczNzg8L3RpdGxlPiYjeGE7CQkJPHBhdGggaWQ9InBhdGgxMTQ4MzIiIGlua3NjYXBlOmNvbm5lY3Rvci1jdXJ2YXR1cmU9IjAiIHN0eWxlPSJmaWxsOiMwQzJGNEY7IiBkPSJNOTUuMjUsNzIuMThjMCwxLjA4LTAuOTQsMS45Ni0yLjExLDEuOTZIMi4xMSAgICAgQzAuOTQsNzQuMTQsMCw3My4yNiwwLDcyLjE4VjE5LjQzYzAtMS4wOCwwLjk0LTEuOTYsMi4xMS0xLjk2aDkxLjAzYzEuMTcsMCwyLjExLDAuODgsMi4xMSwxLjk2VjcyLjE4eiIvPiYjeGE7CQk8L2c+JiN4YTsJCTxnIGlkPSJzaGFwZTczNzktMTAiIHRyYW5zZm9ybT0idHJhbnNsYXRlKDIuMTA2MzUsLTIxLjEwNikiPiYjeGE7CQkJPHRpdGxlIGlkPSJ0aXRsZTExNDgzNSI+U2hlZXQuNzM3OTwvdGl0bGU+JiN4YTsJCQk8cmVjdCBpZD0icmVjdDExNDgzNyIgeD0iMCIgeT0iMjQuODQiIHN0eWxlPSJmaWxsOiMwMEFFRUY7IiB3aWR0aD0iOTAuNzIiIGhlaWdodD0iNDkuMjkiLz4mI3hhOwkJPC9nPiYjeGE7CQk8ZyBpZD0ic2hhcGU3MzgwLTEyIiB0cmFuc2Zvcm09InRyYW5zbGF0ZSgwLC0xMS45NjQzKSI+JiN4YTsJCQk8dGl0bGUgaWQ9InRpdGxlMTE0ODQwIj5TaGVldC43MzgwPC90aXRsZT4mI3hhOwkJCTxwYXRoIGlkPSJwYXRoMTE0ODQyIiBpbmtzY2FwZTpjb25uZWN0b3ItY3VydmF0dXJlPSIwIiBzdHlsZT0iZmlsbDojQkZCRkJGOyIgZD0iTTAsNjcuNDN2NC42OGMwLDEuMTIsMC45NCwyLjAzLDIuMTEsMi4wMyAgICAgaDkxLjAzYzEuMTcsMCwyLjExLTAuOTEsMi4xMS0yLjAzdi00LjY4SDB6Ii8+JiN4YTsJCTwvZz4mI3hhOwkJPGcgaWQ9Imdyb3VwNzM4MS0xNCIgdHJhbnNmb3JtPSJ0cmFuc2xhdGUoODYuMzM3LC0xMy43MzU2KSI+JiN4YTsJCQk8dGl0bGUgaWQ9InRpdGxlMTE0ODQ1Ij5TaGVldC43MzgxPC90aXRsZT4mI3hhOwkJCTxnIGlkPSJzaGFwZTczODItMTUiIHRyYW5zZm9ybT0idHJhbnNsYXRlKDEuMzg0ODUsLTEuMzU3OTQpIj4mI3hhOwkJCQk8dGl0bGUgaWQ9InRpdGxlMTE0ODQ3Ij5TaGVldC43MzgyPC90aXRsZT4mI3hhOwkJCQk8cGF0aCBpZD0icGF0aDExNDg0OSIgaW5rc2NhcGU6Y29ubmVjdG9yLWN1cnZhdHVyZT0iMCIgc3R5bGU9ImZpbGw6IzAwQUVFRjtmaWxsLW9wYWNpdHk6MC42OyIgZD0iTTAuMjgsNzQuMTQgICAgICBDMC4xMyw3NC4xNCwwLDc0LDAsNzMuODN2LTEuNTJjMC0wLjE2LDAuMTMtMC4zLDAuMjgtMC4zYzAuMTYsMCwwLjI5LDAuMTQsMC4yOSwwLjN2MS41MkMwLjU3LDc0LDAuNDQsNzQuMTQsMC4yOCw3NC4xNHoiLz4mI3hhOwkJCTwvZz4mI3hhOwkJCTxnIGlkPSJzaGFwZTczODMtMTciPiYjeGE7CQkJCTx0aXRsZSBpZD0idGl0bGUxMTQ4NTIiPlNoZWV0LjczODM8L3RpdGxlPiYjeGE7CQkJCTxwYXRoIGlkPSJwYXRoMTE0ODU0IiBpbmtzY2FwZTpjb25uZWN0b3ItY3VydmF0dXJlPSIwIiBzdHlsZT0iZmlsbDojMDBBRUVGO2ZpbGwtb3BhY2l0eTowLjY7IiBkPSJNMS42Nyw3NC4xNCAgICAgIEMwLjc1LDc0LjE0LDAsNzMuMzksMCw3Mi40N2MwLTAuNDksMC4yMi0wLjk2LDAuNTktMS4yOGMwLjExLTAuMDksMC4yNy0wLjA3LDAuMzYsMC4wM2MwLjA4LDAuMTEsMC4wNywwLjI2LTAuMDQsMC4zNSAgICAgIGMtMC4yNiwwLjIzLTAuNDEsMC41NS0wLjQxLDAuOWMwLDAuNjUsMC41MiwxLjE3LDEuMTcsMS4xN2MwLjY0LDAsMS4xNy0wLjUyLDEuMTctMS4xN2MwLTAuMzUtMC4xNS0wLjY3LTAuNDItMC45ICAgICAgYy0wLjEtMC4wOS0wLjEyLTAuMjQtMC4wMy0wLjM1YzAuMDktMC4xLDAuMjUtMC4xMiwwLjM1LTAuMDNjMC4zOCwwLjMyLDAuNiwwLjc5LDAuNiwxLjI4QzMuMzQsNzMuMzksMi41OSw3NC4xNCwxLjY3LDc0LjE0eiIvPiYjeGE7CQkJPC9nPiYjeGE7CQk8L2c+JiN4YTsJCTxnIGlkPSJzaGFwZTczODQtMTkiIHRyYW5zZm9ybT0idHJhbnNsYXRlKDEyLjM1NDksLTI3LjQ4OCkiPiYjeGE7CQkJPHRpdGxlIGlkPSJ0aXRsZTExNDg1OCI+U2hlZXQuNzM4NDwvdGl0bGU+JiN4YTsJCQk8cGF0aCBpZD0icGF0aDExNDg2MCIgaW5rc2NhcGU6Y29ubmVjdG9yLWN1cnZhdHVyZT0iMCIgc3R5bGU9ImZpbGw6I0QxRDNENDsiIGQ9Ik02OC40Myw3Mi43M2MwLDAuNzgtMC42OCwxLjQxLTEuNTIsMS40MUgxLjUxICAgICBDMC42OCw3NC4xNCwwLDczLjUxLDAsNzIuNzNWMzQuODRjMC0wLjc4LDAuNjgtMS40MSwxLjUxLTEuNDFoNjUuNGMwLjg0LDAsMS41MiwwLjYzLDEuNTIsMS40MVY3Mi43M3oiLz4mI3hhOwkJPC9nPiYjeGE7CQk8ZyBpZD0ic2hhcGU3Mzg1LTIxIiB0cmFuc2Zvcm09InRyYW5zbGF0ZSgxNy4zNDAxLC02My4zMjc2KSI+JiN4YTsJCQk8dGl0bGUgaWQ9InRpdGxlMTE0ODYzIj5TaGVldC43Mzg1PC90aXRsZT4mI3hhOwkJCTxwYXRoIGlkPSJwYXRoMTE0ODY1IiBpbmtzY2FwZTpjb25uZWN0b3ItY3VydmF0dXJlPSIwIiBzdHlsZT0iZmlsbDojNTg1OTVCOyIgZD0iTTEuMzksNzMuNTd2MC4yOEgwLjUxbDAuMjksMC4yOUgwLjQzTDAsNzMuNzEgICAgIGwwLjQzLTAuNDJIMC44bC0wLjI5LDAuMjhIMS4zOXoiLz4mI3hhOwkJPC9nPiYjeGE7CQk8ZyBpZD0ic2hhcGU3Mzg2LTIzIiB0cmFuc2Zvcm09InRyYW5zbGF0ZSgxOS42NDI4LC02My4zMjc2KSI+JiN4YTsJCQk8dGl0bGUgaWQ9InRpdGxlMTE0ODY4Ij5TaGVldC43Mzg2PC90aXRsZT4mI3hhOwkJCTxwYXRoIGlkPSJwYXRoMTE0ODcwIiBpbmtzY2FwZTpjb25uZWN0b3ItY3VydmF0dXJlPSIwIiBzdHlsZT0iZmlsbDojOTM5NTk4OyIgZD0iTTAsNzMuNTd2MC4yOGgwLjg4bC0wLjI5LDAuMjloMC4zOGwwLjQyLTAuNDMgICAgIGwtMC40Mi0wLjQySDAuNTlsMC4yOSwwLjI4SDB6Ii8+JiN4YTsJCTwvZz4mI3hhOwkJPGcgaWQ9InNoYXBlNzM4Ny0yNSIgdHJhbnNmb3JtPSJ0cmFuc2xhdGUoMjEuOTM1NiwtNjMuMDYxMSkiPiYjeGE7CQkJPHRpdGxlIGlkPSJ0aXRsZTExNDg3MyI+U2hlZXQuNzM4NzwvdGl0bGU+JiN4YTsJCQk8cGF0aCBpZD0icGF0aDExNDg3NSIgaW5rc2NhcGU6Y29ubmVjdG9yLWN1cnZhdHVyZT0iMCIgc3R5bGU9ImZpbGw6IzU4NTk1QjsiIGQ9Ik0wLjU5LDcyLjg2YzAuMTYsMCwwLjMyLDAuMDcsMC40MiwwLjE4di0wLjI5ICAgICBsMC4xNiwwLjE2djAuNDNIMC43NWwtMC4xNi0wLjE2aDAuMjljLTAuMDctMC4wOC0wLjE4LTAuMTMtMC4yOS0wLjEzYy0wLjIxLDAtMC4zNywwLjE1LTAuNCwwLjM0SDAgICAgIEMwLjAzLDczLjA5LDAuMjgsNzIuODYsMC41OSw3Mi44NnogTTAuNTksNzMuODVjMC4yLDAsMC4zNy0wLjE2LDAuMzktMC4zNWgwLjE5Yy0wLjAzLDAuMy0wLjI4LDAuNTMtMC41OCwwLjUzICAgICBjLTAuMTcsMC0wLjMyLTAuMDctMC40My0wLjE4djAuMjlMMCw3My45OHYtMC40M2gwLjQzbDAuMTYsMC4xNmgtMC4zQzAuMzYsNzMuNzksMC40Nyw3My44NSwwLjU5LDczLjg1eiIvPiYjeGE7CQk8L2c+JiN4YTsJCTxnIGlkPSJzaGFwZTczODgtMjciIHRyYW5zZm9ybT0idHJhbnNsYXRlKDU5LjYyNDgsLTYyLjEyNTIpIj4mI3hhOwkJCTx0aXRsZSBpZD0idGl0bGUxMTQ4NzgiPlNoZWV0LjczODg8L3RpdGxlPiYjeGE7CQkJPHBhdGggaWQ9InBhdGgxMTQ4ODAiIGlua3NjYXBlOmNvbm5lY3Rvci1jdXJ2YXR1cmU9IjAiIHN0eWxlPSJmaWxsOiNBN0E5QUM7IiBkPSJNMC42NCw3MC44OGgxNy40NGMwLjM1LDAsMC42NCwwLjE3LDAuNjQsMC4zOCAgICAgdjIuNWMwLDAuMjEtMC4yOSwwLjM4LTAuNjQsMC4zOEgwLjY0QzAuMjksNzQuMTQsMCw3My45NywwLDczLjc2di0yLjVDMCw3MS4wNSwwLjI5LDcwLjg4LDAuNjQsNzAuODh6Ii8+JiN4YTsJCTwvZz4mI3hhOwkJPGcgaWQ9InNoYXBlNzM4OS0yOSIgdHJhbnNmb3JtPSJ0cmFuc2xhdGUoNTkuNjI0OCwtNjIuMjcyNSkiPiYjeGE7CQkJPHRpdGxlIGlkPSJ0aXRsZTExNDg4MyI+U2hlZXQuNzM4OTwvdGl0bGU+JiN4YTsJCQk8cGF0aCBpZD0icGF0aDExNDg4NSIgaW5rc2NhcGU6Y29ubmVjdG9yLWN1cnZhdHVyZT0iMCIgc3R5bGU9ImZpbGw6I0ZGRkZGRjsiIGQ9Ik0wLjY0LDcxLjAzaDE3LjMxYzAuMzUsMCwwLjY0LDAuMTYsMC42NCwwLjM2ICAgICB2Mi4zOWMwLDAuMi0wLjI5LDAuMzYtMC42NCwwLjM2SDAuNjRDMC4yOSw3NC4xNCwwLDczLjk4LDAsNzMuNzh2LTIuMzlDMCw3MS4xOSwwLjI5LDcxLjAzLDAuNjQsNzEuMDN6Ii8+JiN4YTsJCTwvZz4mI3hhOwkJPGcgaWQ9InNoYXBlNzM5MC0zMSIgdHJhbnNmb3JtPSJ0cmFuc2xhdGUoNzUuNjc0NywtNjMuMzc1NSkiPiYjeGE7CQkJPHRpdGxlIGlkPSJ0aXRsZTExNDg4OCI+U2hlZXQuNzM5MDwvdGl0bGU+JiN4YTsJCQk8Y2lyY2xlIGlkPSJlbGxpcHNlMTE0ODkwIiBzdHlsZT0iZmlsbDojQTdBOUFDOyIgY3g9IjAuNjIiIGN5PSI3My41MiIgcj0iMC42MiIvPiYjeGE7CQk8L2c+JiN4YTsJCTxnIGlkPSJzaGFwZTczOTEtMzMiIHRyYW5zZm9ybT0idHJhbnNsYXRlKDc1Ljc5NCwtNjMuNTA5KSI+JiN4YTsJCQk8dGl0bGUgaWQ9InRpdGxlMTE0ODkzIj5TaGVldC43MzkxPC90aXRsZT4mI3hhOwkJCTxjaXJjbGUgaWQ9ImVsbGlwc2UxMTQ4OTUiIHN0eWxlPSJmaWxsOiNGRkZGRkY7IiBjeD0iMC41IiBjeT0iNzMuNjQiIHI9IjAuNSIvPiYjeGE7CQk8L2c+JiN4YTsJCTxnIGlkPSJzaGFwZTczOTItMzUiIHRyYW5zZm9ybT0icm90YXRlKC00NC44NzA0LC0zNy41MTUxMjUsLTUwLjg4MDUyMykiPiYjeGE7CQkJPHRpdGxlIGlkPSJ0aXRsZTExNDg5OCI+U2hlZXQuNzM5MjwvdGl0bGU+JiN4YTsJCQkmI3hhOwkJCQk8cmVjdCBpZD0icmVjdDExNDkwMCIgeD0iMCIgeT0iNzMuMjIiIHRyYW5zZm9ybT0ibWF0cml4KC0xIDEuOTI1NTQzZS0wNiAtMS45MjU1NDNlLTA2IC0xIDAuMTY4NyAxNDcuMzU5KSIgc3R5bGU9ImZpbGw6I0E3QTlBQzsiIHdpZHRoPSIwLjE3IiBoZWlnaHQ9IjAuOTIiLz4mI3hhOwkJPC9nPiYjeGE7CQk8ZyBpZD0ic2hhcGU3MzkzLTM3IiB0cmFuc2Zvcm09InRyYW5zbGF0ZSgyNS41OTgsLTYyLjA0NzcpIj4mI3hhOwkJCTx0aXRsZSBpZD0idGl0bGUxMTQ5MDMiPlNoZWV0LjczOTM8L3RpdGxlPiYjeGE7CQkJPHBhdGggaWQ9InBhdGgxMTQ5MDUiIGlua3NjYXBlOmNvbm5lY3Rvci1jdXJ2YXR1cmU9IjAiIHN0eWxlPSJmaWxsOiM5OTk5OTk7IiBkPSJNMzIuNTQsNzAuODhIMTguMDhIMTUuMUgwLjY0ICAgICBDMC4yOSw3MC44OCwwLDcxLjA1LDAsNzEuMjZ2Mi41YzAsMC4yMSwwLjI5LDAuMzgsMC42NCwwLjM4SDE1LjFoMi45OGgxNC40NmMwLjM1LDAsMC42NC0wLjE3LDAuNjQtMC4zOHYtMi41ICAgICBDMzMuMTgsNzEuMDUsMzIuODksNzAuODgsMzIuNTQsNzAuODh6Ii8+JiN4YTsJCTwvZz4mI3hhOwkJPGcgaWQ9InNoYXBlNzM5NC0zOSIgdHJhbnNmb3JtPSJ0cmFuc2xhdGUoMjUuNTY0MywtNjIuMTk1MSkiPiYjeGE7CQkJPHRpdGxlIGlkPSJ0aXRsZTExNDkwOCI+U2hlZXQuNzM5NDwvdGl0bGU+JiN4YTsJCQk8cGF0aCBpZD0icGF0aDExNDkxMCIgaW5rc2NhcGU6Y29ubmVjdG9yLWN1cnZhdHVyZT0iMCIgc3R5bGU9ImZpbGw6I0ZGRkZGRjsiIGQ9Ik0zMi40NCw3MS4wM0gxNy45NWgtMi44MkgwLjY0ICAgICBDMC4yOSw3MS4wMywwLDcxLjE5LDAsNzEuMzl2Mi4zOWMwLDAuMiwwLjI5LDAuMzYsMC42NCwwLjM2aDE0LjQ5aDIuODJoMTQuNDljMC4zNSwwLDAuNjQtMC4xNiwwLjY0LTAuMzZ2LTIuMzkgICAgIEMzMy4wOCw3MS4xOSwzMi43OSw3MS4wMywzMi40NCw3MS4wM3oiLz4mI3hhOwkJPC9nPiYjeGE7CQk8ZyBpZD0ic2hhcGU3Mzk1LTQxIiB0cmFuc2Zvcm09InRyYW5zbGF0ZSgyNi4zNzc0LC02My4wODQzKSI+JiN4YTsJCQk8dGl0bGUgaWQ9InRpdGxlMTE0OTEzIj5TaGVldC43Mzk1PC90aXRsZT4mI3hhOwkJCTxwYXRoIGlkPSJwYXRoMTE0OTE1IiBpbmtzY2FwZTpjb25uZWN0b3ItY3VydmF0dXJlPSIwIiBzdHlsZT0iZmlsbDojNTg1OTVCOyIgZD0iTTAuNzYsNzQuMTFjMCwwLjAxLDAsMC4wMSwwLDAuMDEgICAgIGMwLDAuMDEtMC4wMSwwLjAxLTAuMDEsMC4wMWMtMC4wMSwwLTAuMDEsMC4wMS0wLjAyLDAuMDFzLTAuMDIsMC0wLjAzLDBzLTAuMDIsMC0wLjAzLDBjLTAuMDEtMC4wMS0wLjAxLTAuMDEtMC4wMi0wLjAxICAgICBjMCwwLTAuMDEsMC0wLjAxLTAuMDFjMCwwLDAsMCwwLTAuMDF2LTAuNTZjMC0wLjA1LTAuMDEtMC4xLTAuMDEtMC4xNGMtMC4wMS0wLjAzLTAuMDMtMC4wNy0wLjA1LTAuMDkgICAgIGMtMC4wMS0wLjAzLTAuMDQtMC4wNS0wLjA2LTAuMDZjLTAuMDMtMC4wMi0wLjA3LTAuMDItMC4xLTAuMDJjLTAuMDUsMC0wLjEsMC4wMS0wLjE1LDAuMDVjLTAuMDQsMC4wMy0wLjA5LDAuMDgtMC4xNSwwLjE1djAuNjcgICAgIGMwLDAuMDEsMCwwLjAxLDAsMC4wMWMwLDAuMDEsMCwwLjAxLTAuMDEsMC4wMWMwLDAtMC4wMSwwLTAuMDIsMC4wMWMtMC4wMSwwLTAuMDIsMC0wLjAzLDBjLTAuMDEsMC0wLjAyLDAtMC4wMywwICAgICBjLTAuMDEtMC4wMS0wLjAxLTAuMDEtMC4wMi0wLjAxYzAsMC0wLjAxLDAtMC4wMS0wLjAxYzAsMCwwLDAsMC0wLjAxdi0xLjRWNzIuN2wwLjAxLTAuMDFjMC4wMSwwLDAuMDEsMCwwLjAyLDAgICAgIGMwLjAxLTAuMDEsMC4wMi0wLjAxLDAuMDMtMC4wMXMwLjAyLDAsMC4wMywwLjAxYzAuMDEsMCwwLjAyLDAsMC4wMiwwYzAuMDEsMCwwLjAxLDAuMDEsMC4wMSwwLjAxdjAuMDF2MC41OSAgICAgYzAuMDUtMC4wNiwwLjExLTAuMSwwLjE2LTAuMTNjMC4wNS0wLjAyLDAuMS0wLjA0LDAuMTUtMC4wNGMwLjA2LDAsMC4xMSwwLjAxLDAuMTYsMC4wM2MwLjA0LDAuMDIsMC4wNywwLjA1LDAuMSwwLjA5ICAgICBjMC4wMiwwLjAzLDAuMDQsMC4wNywwLjA1LDAuMTJjMC4wMiwwLjA1LDAuMDIsMC4xMSwwLjAyLDAuMTdWNzQuMTF6Ii8+JiN4YTsJCTwvZz4mI3hhOwkJPGcgaWQ9InNoYXBlNzM5Ni00MyIgdHJhbnNmb3JtPSJ0cmFuc2xhdGUoMjcuMzk5NCwtNjMuMDc0MykiPiYjeGE7CQkJPHRpdGxlIGlkPSJ0aXRsZTExNDkxOCI+U2hlZXQuNzM5NjwvdGl0bGU+JiN4YTsJCQk8cGF0aCBpZD0icGF0aDExNDkyMCIgaW5rc2NhcGU6Y29ubmVjdG9yLWN1cnZhdHVyZT0iMCIgc3R5bGU9ImZpbGw6IzU4NTk1QjsiIGQ9Ik0xLjIxLDc0LjA0YzAsMC4wMiwwLDAuMDMsMCwwLjA0ICAgICBDMS4yLDc0LjA5LDEuMiw3NC4xLDEuMTksNzQuMWMwLDAuMDEtMC4wMSwwLjAxLTAuMDIsMC4wMmMtMC4wMSwwLTAuMDIsMC0wLjAzLDAuMDFjLTAuMDIsMC0wLjAzLDAtMC4wNCwwLjAxICAgICBjLTAuMDIsMC0wLjAzLDAtMC4wNSwwYy0wLjA0LDAtMC4wOC0wLjAxLTAuMTItMC4wMmMtMC4wMy0wLjAxLTAuMDYtMC4wMy0wLjA4LTAuMDZDMC44Myw3NC4wNCwwLjgyLDc0LDAuODEsNzMuOTcgICAgIEMwLjgsNzMuOTMsMC44LDczLjg4LDAuOCw3My44M3YtMC41OUgwLjI5djAuNTdjMCwwLjA3LDAuMDEsMC4xMywwLjA0LDAuMTdjMC4wMiwwLjAzLDAuMDUsMC4wNSwwLjExLDAuMDVjMC4wMSwwLDAuMDMsMCwwLjA0LDAgICAgIGMwLjAyLTAuMDEsMC4wMy0wLjAxLDAuMDQtMC4wMWMwLjAxLTAuMDEsMC4wMi0wLjAxLDAuMDItMC4wMmMwLjAxLDAsMC4wMiwwLDAuMDIsMGMwLjAxLDAsMC4wMSwwLDAuMDEsMCAgICAgYzAuMDEsMCwwLjAxLDAsMC4wMSwwLjAxdjAuMDFjMCwwLjAxLDAuMDEsMC4wMiwwLjAxLDAuMDN2MC4wMWMtMC4wMSwwLjAxLTAuMDEsMC4wMS0wLjAxLDAuMDJ2MC4wMWMwLDAuMDEtMC4wMSwwLjAxLTAuMDEsMC4wMSAgICAgYy0wLjAxLDAuMDEtMC4wMiwwLjAxLTAuMDIsMC4wMmMtMC4wMSwwLTAuMDMsMC0wLjA0LDAuMDFjLTAuMDEsMC0wLjAyLDAtMC4wNCwwLjAxYy0wLjAxLDAtMC4wMywwLTAuMDQsMCAgICAgYy0wLjA1LDAtMC4wOS0wLjAxLTAuMTItMC4wMmMtMC4wMy0wLjAxLTAuMDYtMC4wMy0wLjA4LTAuMDZjLTAuMDItMC4wMi0wLjA0LTAuMDUtMC4wNC0wLjA5Yy0wLjAxLTAuMDQtMC4wMi0wLjA5LTAuMDItMC4xNCAgICAgdi0wLjU5SDAuMDNjLTAuMDEsMC0wLjAyLDAtMC4wMi0wLjAxQzAsNzMuMjIsMCw3My4yMSwwLDczLjE5YzAtMC4wMSwwLTAuMDEsMC0wLjAyYzAtMC4wMSwwLjAxLTAuMDEsMC4wMS0wLjAyICAgICBjMCwwLDAtMC4wMSwwLjAxLTAuMDFoMC4wMWgwLjE0di0wLjIzYzAtMC4wMSwwLTAuMDEsMC0wLjAxYzAuMDEtMC4wMSwwLjAxLTAuMDEsMC4wMS0wLjAxYzAuMDEsMCwwLjAxLTAuMDEsMC4wMi0wLjAxICAgICBjMC4wMSwwLDAuMDIsMCwwLjAzLDBzMC4wMiwwLDAuMDMsMGMwLjAxLDAsMC4wMiwwLjAxLDAuMDIsMC4wMWMwLjAxLDAsMC4wMSwwLDAuMDEsMC4wMWMwLDAsMCwwLDAsMC4wMXYwLjIzSDAuOHYtMC4yNyAgICAgYzAtMC4wMSwwLTAuMDEsMC0wLjAyYzAsMCwwLDAsMC4wMSwwYzAtMC4wMSwwLjAxLTAuMDEsMC4wMi0wLjAxYzAsMCwwLjAxLDAsMC4wMywwYzAuMDEsMCwwLjAyLDAsMC4wMywwICAgICBjMCwwLDAuMDEsMC4wMSwwLjAyLDAuMDFjMCwwLDAsMCwwLjAxLDBjMCwwLjAxLDAsMC4wMSwwLDAuMDJ2MC4yN2gwLjI2aDAuMDFsMC4wMSwwLjAxYzAsMC4wMSwwLDAuMDEsMC4wMSwwLjAyICAgICBjMCwwLjAxLDAsMC4wMSwwLDAuMDJjMCwwLjAyLDAsMC4wMy0wLjAxLDAuMDRzLTAuMDEsMC4wMS0wLjAyLDAuMDFIMC45MnYwLjU3YzAsMC4wNywwLjAxLDAuMTMsMC4wMywwLjE3ICAgICBjMC4wMiwwLjAzLDAuMDYsMC4wNSwwLjExLDAuMDVjMC4wMiwwLDAuMDMsMCwwLjA1LDBjMC4wMS0wLjAxLDAuMDItMC4wMSwwLjAzLTAuMDFjMC4wMS0wLjAxLDAuMDItMC4wMSwwLjAzLTAuMDIgICAgIGMwLjAxLDAsMC4wMSwwLDAuMDIsMGMwLDAsMCwwLDAuMDEsMGMwLDAsMCwwLDAsMC4wMWwwLjAxLDAuMDFDMS4yMSw3NC4wMywxLjIxLDc0LjA0LDEuMjEsNzQuMDR6Ii8+JiN4YTsJCTwvZz4mI3hhOwkJPGcgaWQ9InNoYXBlNzM5Ny00NSIgdHJhbnNmb3JtPSJ0cmFuc2xhdGUoMjguOTI1NiwtNjIuNzExNykiPiYjeGE7CQkJPHRpdGxlIGlkPSJ0aXRsZTExNDkyMyI+U2hlZXQuNzM5NzwvdGl0bGU+JiN4YTsJCQk8cGF0aCBpZD0icGF0aDExNDkyNSIgaW5rc2NhcGU6Y29ubmVjdG9yLWN1cnZhdHVyZT0iMCIgc3R5bGU9ImZpbGw6IzU4NTk1QjsiIGQ9Ik0wLjgyLDczLjI1YzAsMC4wOC0wLjAxLDAuMTYtMC4wMywwLjIyICAgICBjLTAuMDEsMC4wNy0wLjA0LDAuMTItMC4wNywwLjE3Yy0wLjA0LDAuMDQtMC4wOCwwLjA4LTAuMTMsMC4xcy0wLjExLDAuMDQtMC4xNywwLjA0Yy0wLjAzLDAtMC4wNi0wLjAxLTAuMDgtMC4wMSAgICAgYy0wLjAzLTAuMDEtMC4wNS0wLjAyLTAuMDctMC4wM2MtMC4wMy0wLjAxLTAuMDUtMC4wMy0wLjA3LTAuMDVjLTAuMDMtMC4wMS0wLjA1LTAuMDQtMC4wOC0wLjA2djAuNDhjMCwwLjAxLDAsMC4wMSwwLDAuMDEgICAgIGMwLDAuMDEsMCwwLjAxLTAuMDEsMC4wMWMwLDAtMC4wMSwwLjAxLTAuMDIsMC4wMXMtMC4wMiwwLTAuMDMsMHMtMC4wMiwwLTAuMDMsMHMtMC4wMS0wLjAxLTAuMDItMC4wMWMwLDAtMC4wMSwwLTAuMDEtMC4wMSAgICAgYzAsMCwwLDAsMC0wLjAxVjcyLjhjMC0wLjAxLDAtMC4wMSwwLTAuMDFjMC0wLjAxLDAuMDEtMC4wMSwwLjAxLTAuMDFjMC4wMSwwLDAuMDEtMC4wMSwwLjAyLTAuMDFzMC4wMiwwLDAuMDMsMHMwLjAyLDAsMC4wMiwwICAgICBjMC4wMSwwLDAuMDIsMC4wMSwwLjAyLDAuMDFzMC4wMSwwLDAuMDEsMC4wMWMwLDAsMCwwLDAsMC4wMXYwLjEzYzAuMDMtMC4wMywwLjA2LTAuMDUsMC4wOS0wLjA3YzAuMDItMC4wMiwwLjA1LTAuMDQsMC4wOC0wLjA2ICAgICBjMC4wMi0wLjAxLDAuMDUtMC4wMiwwLjA4LTAuMDNjMC4wMi0wLjAxLDAuMDUtMC4wMSwwLjA4LTAuMDFjMC4wNywwLDAuMTMsMC4wMSwwLjE4LDAuMDRzMC4wOCwwLjA2LDAuMTEsMC4xMSAgICAgQzAuNzYsNzIuOTUsMC43OSw3MywwLjgsNzMuMDZDMC44MSw3My4xMiwwLjgyLDczLjE5LDAuODIsNzMuMjV6IE0wLjY5LDczLjI3YzAtMC4wNSwwLTAuMS0wLjAxLTAuMTUgICAgIGMtMC4wMS0wLjA1LTAuMDItMC4wOS0wLjA0LTAuMTNjLTAuMDItMC4wNC0wLjA1LTAuMDctMC4wOC0wLjA5Yy0wLjA0LTAuMDItMC4wOC0wLjAzLTAuMTMtMC4wM2MtMC4wMiwwLTAuMDUsMC0wLjA3LDAuMDEgICAgIGMtMC4wMiwwLTAuMDUsMC4wMS0wLjA3LDAuMDNjLTAuMDMsMC4wMi0wLjA1LDAuMDQtMC4wOCwwLjA2Yy0wLjAzLDAuMDMtMC4wNiwwLjA2LTAuMDksMC4xdjAuNDFjMC4wNiwwLjA2LDAuMTEsMC4xMSwwLjE1LDAuMTQgICAgIGMwLjA1LDAuMDMsMC4xLDAuMDUsMC4xNSwwLjA1czAuMDktMC4wMSwwLjEyLTAuMDNjMC4wNC0wLjAzLDAuMDctMC4wNiwwLjA5LTAuMWMwLjAyLTAuMDMsMC4wNC0wLjA4LDAuMDUtMC4xMiAgICAgQzAuNjksNzMuMzcsMC42OSw3My4zMiwwLjY5LDczLjI3eiIvPiYjeGE7CQk8L2c+JiN4YTsJCTxnIGlkPSJzaGFwZTczOTgtNDciIHRyYW5zZm9ybT0idHJhbnNsYXRlKDMwLjEzNzIsLTYzLjA4MzIpIj4mI3hhOwkJCTx0aXRsZSBpZD0idGl0bGUxMTQ5MjgiPlNoZWV0LjczOTg8L3RpdGxlPiYjeGE7CQkJPHBhdGggaWQ9InBhdGgxMTQ5MzAiIGlua3NjYXBlOmNvbm5lY3Rvci1jdXJ2YXR1cmU9IjAiIHN0eWxlPSJmaWxsOiM1ODU5NUI7IiBkPSJNMC4xOCw3My4yOWMwLDAuMDIsMCwwLjA0LTAuMDEsMC4wNSAgICAgYzAsMC4wMSwwLDAuMDItMC4wMSwwLjAzcy0wLjAyLDAuMDItMC4wMywwLjAycy0wLjAyLDAtMC4wNCwwcy0wLjAzLDAtMC4wNSwwYy0wLjAxLTAuMDEtMC4wMi0wLjAxLTAuMDItMC4wMiAgICAgQzAuMDEsNzMuMzYsMC4wMSw3My4zNSwwLDczLjM0YzAtMC4wMSwwLTAuMDMsMC0wLjA1YzAtMC4wMiwwLTAuMDMsMC0wLjA1YzAuMDEtMC4wMSwwLjAxLTAuMDIsMC4wMi0wLjAzICAgICBjMCwwLDAuMDEtMC4wMSwwLjAyLTAuMDFjMC4wMi0wLjAxLDAuMDMtMC4wMSwwLjA1LTAuMDFzMC4wMywwLDAuMDQsMC4wMWMwLjAxLDAsMC4wMiwwLjAxLDAuMDMsMC4wMSAgICAgYzAuMDEsMC4wMSwwLjAxLDAuMDIsMC4wMSwwLjAzQzAuMTgsNzMuMjYsMC4xOCw3My4yNywwLjE4LDczLjI5eiBNMC4xOCw3NC4wNGMwLDAuMDIsMCwwLjAzLTAuMDEsMC4wNWMwLDAuMDEsMCwwLjAyLTAuMDEsMC4wMyAgICAgYy0wLjAxLDAtMC4wMiwwLjAxLTAuMDMsMC4wMWMtMC4wMSwwLjAxLTAuMDIsMC4wMS0wLjA0LDAuMDFzLTAuMDMsMC0wLjA1LTAuMDFjLTAuMDEsMC0wLjAyLTAuMDEtMC4wMi0wLjAxICAgICBDMC4wMSw3NC4xMSwwLjAxLDc0LjEsMCw3NC4wOWMwLTAuMDIsMC0wLjAzLDAtMC4wNWMwLTAuMDIsMC0wLjA0LDAtMC4wNWMwLjAxLTAuMDEsMC4wMS0wLjAyLDAuMDItMC4wMyAgICAgYzAtMC4wMSwwLjAxLTAuMDEsMC4wMi0wLjAyYzAuMDIsMCwwLjAzLDAsMC4wNSwwczAuMDMsMCwwLjA0LDBjMC4wMSwwLjAxLDAuMDIsMC4wMSwwLjAzLDAuMDJjMC4wMSwwLjAxLDAuMDEsMC4wMiwwLjAxLDAuMDMgICAgIEMwLjE4LDc0LDAuMTgsNzQuMDIsMC4xOCw3NC4wNHoiLz4mI3hhOwkJPC9nPiYjeGE7CQk8ZyBpZD0ic2hhcGU3Mzk5LTQ5IiB0cmFuc2Zvcm09InRyYW5zbGF0ZSgzMC41NTgsLTYyLjgxMDkpIj4mI3hhOwkJCTx0aXRsZSBpZD0idGl0bGUxMTQ5MzMiPlNoZWV0LjczOTk8L3RpdGxlPiYjeGE7CQkJPHBhdGggaWQ9InBhdGgxMTQ5MzUiIGlua3NjYXBlOmNvbm5lY3Rvci1jdXJ2YXR1cmU9IjAiIHN0eWxlPSJmaWxsOiM1ODU5NUI7IiBkPSJNMC4xMiw3NC4xYzAsMC4wMSwwLDAuMDEsMCwwLjAyICAgICBjLTAuMDEsMC0wLjAxLDAuMDEtMC4wMiwwLjAxYzAsMC0wLjAxLDAuMDEtMC4wMiwwLjAxYzAsMC0wLjAxLDAtMC4wMiwwcy0wLjAyLDAtMC4wMywwYy0wLjAxLTAuMDEtMC4wMi0wLjAxLTAuMDItMC4wMSAgICAgQzAsNzQuMTIsMCw3NC4xMiwwLDc0LjExYzAsMCwwLTAuMDEsMC0wLjAybDAuNjQtMS43MWMwLTAuMDEsMC0wLjAyLDAuMDEtMC4wMmwwLjAxLTAuMDFjMC4wMSwwLDAuMDEtMC4wMSwwLjAyLTAuMDEgICAgIHMwLjAyLDAsMC4wMywwczAuMDIsMCwwLjAyLDBjMC4wMSwwLjAxLDAuMDIsMC4wMSwwLjAyLDAuMDFjMC4wMSwwLjAxLDAuMDEsMC4wMSwwLjAxLDAuMDJjMCwwLDAsMC4wMSwwLDAuMDJMMC4xMiw3NC4xeiIvPiYjeGE7CQk8L2c+JiN4YTsJCTxnIGlkPSJzaGFwZTc0MDAtNTEiIHRyYW5zZm9ybT0idHJhbnNsYXRlKDMxLjM5ODYsLTYyLjgxMDkpIj4mI3hhOwkJCTx0aXRsZSBpZD0idGl0bGUxMTQ5MzgiPlNoZWV0Ljc0MDA8L3RpdGxlPiYjeGE7CQkJPHBhdGggaWQ9InBhdGgxMTQ5NDAiIGlua3NjYXBlOmNvbm5lY3Rvci1jdXJ2YXR1cmU9IjAiIHN0eWxlPSJmaWxsOiM1ODU5NUI7IiBkPSJNMC4xMyw3NC4xYy0wLjAxLDAuMDEtMC4wMSwwLjAxLTAuMDEsMC4wMiAgICAgYy0wLjAxLDAtMC4wMSwwLjAxLTAuMDIsMC4wMWMwLDAtMC4wMSwwLjAxLTAuMDIsMC4wMWMwLDAtMC4wMSwwLTAuMDIsMHMtMC4wMiwwLTAuMDMsMGMtMC4wMS0wLjAxLTAuMDItMC4wMS0wLjAyLTAuMDEgICAgIGMwLTAuMDEtMC4wMS0wLjAxLTAuMDEtMC4wMmMwLDAsMC0wLjAxLDAtMC4wMmwwLjY0LTEuNzFjMC0wLjAxLDAtMC4wMiwwLjAxLTAuMDJsMC4wMS0wLjAxYzAuMDEsMCwwLjAxLTAuMDEsMC4wMi0wLjAxICAgICBzMC4wMiwwLDAuMDMsMHMwLjAyLDAsMC4wMiwwYzAuMDEsMC4wMSwwLjAyLDAuMDEsMC4wMiwwLjAxYzAuMDEsMC4wMSwwLjAxLDAuMDEsMC4wMSwwLjAyYzAsMCwwLDAuMDEsMCwwLjAyTDAuMTMsNzQuMXoiLz4mI3hhOwkJPC9nPiYjeGE7CQk8ZyBpZD0ic2hhcGU3NDAxLTUzIiB0cmFuc2Zvcm09InRyYW5zbGF0ZSgxNy4wMzMxLC0yOS40MjkpIj4mI3hhOwkJCTx0aXRsZSBpZD0idGl0bGUxMTQ5NDMiPlNoZWV0Ljc0MDE8L3RpdGxlPiYjeGE7CQkJPHBhdGggaWQ9InBhdGgxMTQ5NDUiIGlua3NjYXBlOmNvbm5lY3Rvci1jdXJ2YXR1cmU9IjAiIHN0eWxlPSJmaWxsOiNFNkU3RTg7IiBkPSJNMCw0My4zNmg2MC4wOHYzMC43OEgwVjQzLjM2eiIvPiYjeGE7CQk8L2c+JiN4YTsJCTxnIGlkPSJzaGFwZTc0MDItNTUiIHRyYW5zZm9ybT0idHJhbnNsYXRlKDYxLjM0MjMsLTQ5LjE1MzYpIj4mI3hhOwkJCTx0aXRsZSBpZD0idGl0bGUxMTQ5NDgiPlNoZWV0Ljc0MDI8L3RpdGxlPiYjeGE7CQkJPHBhdGggaWQ9InBhdGgxMTQ5NTAiIGlua3NjYXBlOmNvbm5lY3Rvci1jdXJ2YXR1cmU9IjAiIHN0eWxlPSJmaWxsOiNGRkRDNjY7IiBkPSJNMCw3NC4xNGgxMy42NHYtNy43OUgwVjc0LjE0eiIvPiYjeGE7CQk8L2c+JiN4YTsJCTxnIGlkPSJzaGFwZTc0MDMtNTciIHRyYW5zZm9ybT0idHJhbnNsYXRlKDYxLjM0MjMsLTMwLjgyODEpIj4mI3hhOwkJCTx0aXRsZSBpZD0idGl0bGUxMTQ5NTMiPlNoZWV0Ljc0MDM8L3RpdGxlPiYjeGE7CQkJPHBhdGggaWQ9InBhdGgxMTQ5NTUiIGlua3NjYXBlOmNvbm5lY3Rvci1jdXJ2YXR1cmU9IjAiIHN0eWxlPSJmaWxsOiNGNTgyMjA7IiBkPSJNMCw3NC4xNGgxMy42NFY2NUgwVjc0LjE0eiIvPiYjeGE7CQk8L2c+JiN4YTsJCTxnIGlkPSJzaGFwZTc0MDQtNTkiIHRyYW5zZm9ybT0idHJhbnNsYXRlKDE5LjM5OTQsLTU2LjAxMTkpIj4mI3hhOwkJCTx0aXRsZSBpZD0idGl0bGUxMTQ5NTgiPlNoZWV0Ljc0MDQ8L3RpdGxlPiYjeGE7CQkJPHBhdGggaWQ9InBhdGgxMTQ5NjAiIGlua3NjYXBlOmNvbm5lY3Rvci1jdXJ2YXR1cmU9IjAiIHN0eWxlPSJmaWxsOiM4MDgyODU7IiBkPSJNMCw3NC4xNGgxMy42NHYtMC45M0gwVjc0LjE0eiIvPiYjeGE7CQk8L2c+JiN4YTsJCTxnIGlkPSJzaGFwZTc0MDUtNjEiIHRyYW5zZm9ybT0idHJhbnNsYXRlKDE5LjM5OTQsLTU0LjU5NTYpIj4mI3hhOwkJCTx0aXRsZSBpZD0idGl0bGUxMTQ5NjMiPlNoZWV0Ljc0MDU8L3RpdGxlPiYjeGE7CQkJPHBhdGggaWQ9InBhdGgxMTQ5NjUiIGlua3NjYXBlOmNvbm5lY3Rvci1jdXJ2YXR1cmU9IjAiIHN0eWxlPSJmaWxsOiNCQ0JEQzA7IiBkPSJNMCw3NC4xNGgzNy43MnYtMC45M0gwVjc0LjE0eiIvPiYjeGE7CQk8L2c+JiN4YTsJCTxnIGlkPSJzaGFwZTc0MDYtNjMiIHRyYW5zZm9ybT0idHJhbnNsYXRlKDE5LjM5OTQsLTUzLjE3OTMpIj4mI3hhOwkJCTx0aXRsZSBpZD0idGl0bGUxMTQ5NjgiPlNoZWV0Ljc0MDY8L3RpdGxlPiYjeGE7CQkJPHBhdGggaWQ9InBhdGgxMTQ5NzAiIGlua3NjYXBlOmNvbm5lY3Rvci1jdXJ2YXR1cmU9IjAiIHN0eWxlPSJmaWxsOiNCQ0JEQzA7IiBkPSJNMCw3NC4xNGgzNy43MnYtMC45M0gwVjc0LjE0eiIvPiYjeGE7CQk8L2c+JiN4YTsJCTxnIGlkPSJzaGFwZTc0MDctNjUiIHRyYW5zZm9ybT0idHJhbnNsYXRlKDE5LjM5OTQsLTUxLjc2MjcpIj4mI3hhOwkJCTx0aXRsZSBpZD0idGl0bGUxMTQ5NzMiPlNoZWV0Ljc0MDc8L3RpdGxlPiYjeGE7CQkJPHBhdGggaWQ9InBhdGgxMTQ5NzUiIGlua3NjYXBlOmNvbm5lY3Rvci1jdXJ2YXR1cmU9IjAiIHN0eWxlPSJmaWxsOiNCQ0JEQzA7IiBkPSJNMCw3NC4xNGgzNy43MnYtMC45M0gwVjc0LjE0eiIvPiYjeGE7CQk8L2c+JiN4YTsJCTxnIGlkPSJzaGFwZTc0MDgtNjciIHRyYW5zZm9ybT0idHJhbnNsYXRlKDE5LjM5OTQsLTUwLjM0NjIpIj4mI3hhOwkJCTx0aXRsZSBpZD0idGl0bGUxMTQ5NzgiPlNoZWV0Ljc0MDg8L3RpdGxlPiYjeGE7CQkJPHBhdGggaWQ9InBhdGgxMTQ5ODAiIGlua3NjYXBlOmNvbm5lY3Rvci1jdXJ2YXR1cmU9IjAiIHN0eWxlPSJmaWxsOiNCQ0JEQzA7IiBkPSJNMCw3NC4xNGgyMS4xNnYtMC45M0gwVjc0LjE0eiIvPiYjeGE7CQk8L2c+JiN4YTsJCTxnIGlkPSJzaGFwZTc0MDktNjkiIHRyYW5zZm9ybT0idHJhbnNsYXRlKDE5LjM5OTQsLTQ4LjA4NDUpIj4mI3hhOwkJCTx0aXRsZSBpZD0idGl0bGUxMTQ5ODMiPlNoZWV0Ljc0MDk8L3RpdGxlPiYjeGE7CQkJPHBhdGggaWQ9InBhdGgxMTQ5ODUiIGlua3NjYXBlOmNvbm5lY3Rvci1jdXJ2YXR1cmU9IjAiIHN0eWxlPSJmaWxsOiM4MDgyODU7IiBkPSJNMCw3NC4xNGg3LjY1di0wLjkzSDBWNzQuMTR6Ii8+JiN4YTsJCTwvZz4mI3hhOwkJPGcgaWQ9InNoYXBlNzQxMC03MSIgdHJhbnNmb3JtPSJ0cmFuc2xhdGUoMTkuMzk5NCwtNDYuNjY4NCkiPiYjeGE7CQkJPHRpdGxlIGlkPSJ0aXRsZTExNDk4OCI+U2hlZXQuNzQxMDwvdGl0bGU+JiN4YTsJCQk8cGF0aCBpZD0icGF0aDExNDk5MCIgaW5rc2NhcGU6Y29ubmVjdG9yLWN1cnZhdHVyZT0iMCIgc3R5bGU9ImZpbGw6I0JDQkRDMDsiIGQ9Ik0wLDc0LjE0aDIxLjE2di0wLjkzSDBWNzQuMTR6Ii8+JiN4YTsJCTwvZz4mI3hhOwkJPGcgaWQ9InNoYXBlNzQxMS03MyIgdHJhbnNmb3JtPSJ0cmFuc2xhdGUoMTkuMzk5NCwtNDUuMjUxNikiPiYjeGE7CQkJPHRpdGxlIGlkPSJ0aXRsZTExNDk5MyI+U2hlZXQuNzQxMTwvdGl0bGU+JiN4YTsJCQk8cGF0aCBpZD0icGF0aDExNDk5NSIgaW5rc2NhcGU6Y29ubmVjdG9yLWN1cnZhdHVyZT0iMCIgc3R5bGU9ImZpbGw6I0JDQkRDMDsiIGQ9Ik0wLDc0LjE0aDIxLjE2di0wLjkzSDBWNzQuMTR6Ii8+JiN4YTsJCTwvZz4mI3hhOwkJPGcgaWQ9InNoYXBlNzQxMi03NSIgdHJhbnNmb3JtPSJ0cmFuc2xhdGUoMTkuMzk5NCwtNDMuODM1MykiPiYjeGE7CQkJPHRpdGxlIGlkPSJ0aXRsZTExNDk5OCI+U2hlZXQuNzQxMjwvdGl0bGU+JiN4YTsJCQk8cGF0aCBpZD0icGF0aDExNTAwMCIgaW5rc2NhcGU6Y29ubmVjdG9yLWN1cnZhdHVyZT0iMCIgc3R5bGU9ImZpbGw6I0JDQkRDMDsiIGQ9Ik0wLDc0LjE0aDIxLjE2di0wLjkzSDBWNzQuMTR6Ii8+JiN4YTsJCTwvZz4mI3hhOwkJPGcgaWQ9InNoYXBlNzQxMy03NyIgdHJhbnNmb3JtPSJ0cmFuc2xhdGUoMTkuMzk5NCwtNDIuNDE5MikiPiYjeGE7CQkJPHRpdGxlIGlkPSJ0aXRsZTExNTAwMyI+U2hlZXQuNzQxMzwvdGl0bGU+JiN4YTsJCQk8cGF0aCBpZD0icGF0aDExNTAwNSIgaW5rc2NhcGU6Y29ubmVjdG9yLWN1cnZhdHVyZT0iMCIgc3R5bGU9ImZpbGw6I0JDQkRDMDsiIGQ9Ik0wLDc0LjE0aDExLjg3di0wLjkzSDBWNzQuMTR6Ii8+JiN4YTsJCTwvZz4mI3hhOwkJPGcgaWQ9InNoYXBlNzQxNC03OSIgdHJhbnNmb3JtPSJ0cmFuc2xhdGUoMTkuMzk5NCwtNDAuMTU3MSkiPiYjeGE7CQkJPHRpdGxlIGlkPSJ0aXRsZTExNTAwOCI+U2hlZXQuNzQxNDwvdGl0bGU+JiN4YTsJCQk8cGF0aCBpZD0icGF0aDExNTAxMCIgaW5rc2NhcGU6Y29ubmVjdG9yLWN1cnZhdHVyZT0iMCIgc3R5bGU9ImZpbGw6IzgwODI4NTsiIGQ9Ik0wLDc0LjE0aDcuNjV2LTAuOTNIMFY3NC4xNHoiLz4mI3hhOwkJPC9nPiYjeGE7CQk8ZyBpZD0ic2hhcGU3NDE1LTgxIiB0cmFuc2Zvcm09InRyYW5zbGF0ZSgxOS4zOTk0LC0zOC43NDEyKSI+JiN4YTsJCQk8dGl0bGUgaWQ9InRpdGxlMTE1MDEzIj5TaGVldC43NDE1PC90aXRsZT4mI3hhOwkJCTxwYXRoIGlkPSJwYXRoMTE1MDE1IiBpbmtzY2FwZTpjb25uZWN0b3ItY3VydmF0dXJlPSIwIiBzdHlsZT0iZmlsbDojQkNCREMwOyIgZD0iTTAsNzQuMTRoMjEuMTZ2LTAuOTNIMFY3NC4xNHoiLz4mI3hhOwkJPC9nPiYjeGE7CQk8ZyBpZD0ic2hhcGU3NDE2LTgzIiB0cmFuc2Zvcm09InRyYW5zbGF0ZSgxOS4zOTk0LC0zNy4zMjQ1KSI+JiN4YTsJCQk8dGl0bGUgaWQ9InRpdGxlMTE1MDE4Ij5TaGVldC43NDE2PC90aXRsZT4mI3hhOwkJCTxwYXRoIGlkPSJwYXRoMTE1MDIwIiBpbmtzY2FwZTpjb25uZWN0b3ItY3VydmF0dXJlPSIwIiBzdHlsZT0iZmlsbDojQkNCREMwOyIgZD0iTTAsNzQuMTRoMjEuMTZ2LTAuOTNIMFY3NC4xNHoiLz4mI3hhOwkJPC9nPiYjeGE7CQk8ZyBpZD0ic2hhcGU3NDE3LTg1IiB0cmFuc2Zvcm09InRyYW5zbGF0ZSgxOS4zOTk0LC0zNS45MDgyKSI+JiN4YTsJCQk8dGl0bGUgaWQ9InRpdGxlMTE1MDIzIj5TaGVldC43NDE3PC90aXRsZT4mI3hhOwkJCTxwYXRoIGlkPSJwYXRoMTE1MDI1IiBpbmtzY2FwZTpjb25uZWN0b3ItY3VydmF0dXJlPSIwIiBzdHlsZT0iZmlsbDojQkNCREMwOyIgZD0iTTAsNzQuMTRoMjEuMTZ2LTAuOTNIMFY3NC4xNHoiLz4mI3hhOwkJPC9nPiYjeGE7CQk8ZyBpZD0ic2hhcGU3NDE4LTg3IiB0cmFuc2Zvcm09InRyYW5zbGF0ZSgxOS4zOTk0LC0zNC40OTE4KSI+JiN4YTsJCQk8dGl0bGUgaWQ9InRpdGxlMTE1MDI4Ij5TaGVldC43NDE4PC90aXRsZT4mI3hhOwkJCTxwYXRoIGlkPSJwYXRoMTE1MDMwIiBpbmtzY2FwZTpjb25uZWN0b3ItY3VydmF0dXJlPSIwIiBzdHlsZT0iZmlsbDojQkNCREMwOyIgZD0iTTAsNzQuMTRoMTEuODd2LTAuOTNIMFY3NC4xNHoiLz4mI3hhOwkJPC9nPiYjeGE7CQk8ZyBpZD0ic2hhcGU3NDE5LTg5IiB0cmFuc2Zvcm09InRyYW5zbGF0ZSg2MS4zNDIzLC00MS4zNjM0KSI+JiN4YTsJCQk8dGl0bGUgaWQ9InRpdGxlMTE1MDMzIj5TaGVldC43NDE5PC90aXRsZT4mI3hhOwkJCTxwYXRoIGlkPSJwYXRoMTE1MDM1IiBpbmtzY2FwZTpjb25uZWN0b3ItY3VydmF0dXJlPSIwIiBzdHlsZT0iZmlsbDojQzZERDc5OyIgZD0iTTAsNzQuMTRoMTMuNjR2LTYuMjZIMFY3NC4xNHoiLz4mI3hhOwkJPC9nPiYjeGE7CQk8ZyBpZD0ic2hhcGU3NDIwLTkxIiB0cmFuc2Zvcm09InRyYW5zbGF0ZSg0Mi42NzksLTMzLjYyNjMpIj4mI3hhOwkJCTx0aXRsZSBpZD0idGl0bGUxMTUwMzgiPlNoZWV0Ljc0MjA8L3RpdGxlPiYjeGE7CQkJPHBhdGggaWQ9InBhdGgxMTUwNDAiIGlua3NjYXBlOmNvbm5lY3Rvci1jdXJ2YXR1cmU9IjAiIHN0eWxlPSJmaWxsOiNBNkNFMzk7IiBkPSJNMCw2NmgyLjI4djguMTRIMFY2NnoiLz4mI3hhOwkJPC9nPiYjeGE7CQk8ZyBpZD0ic2hhcGU3NDIxLTkzIiB0cmFuc2Zvcm09InRyYW5zbGF0ZSg0Mi42NzksLTMzLjYyNjMpIj4mI3hhOwkJCTx0aXRsZSBpZD0idGl0bGUxMTUwNDMiPlNoZWV0Ljc0MjE8L3RpdGxlPiYjeGE7CQkJPHBhdGggaWQ9InBhdGgxMTUwNDUiIGlua3NjYXBlOmNvbm5lY3Rvci1jdXJ2YXR1cmU9IjAiIHN0eWxlPSJmaWxsOiM0N0E1QUU7IiBkPSJNMCw2OC4wNGgyLjI4djYuMUgwVjY4LjA0eiIvPiYjeGE7CQk8L2c+JiN4YTsJCTxnIGlkPSJzaGFwZTc0MjItOTUiIHRyYW5zZm9ybT0idHJhbnNsYXRlKDU1LjgyNywtMzMuNjA4OSkiPiYjeGE7CQkJPHRpdGxlIGlkPSJ0aXRsZTExNTA0OCI+U2hlZXQuNzQyMjwvdGl0bGU+JiN4YTsJCQk8cGF0aCBpZD0icGF0aDExNTA1MCIgaW5rc2NhcGU6Y29ubmVjdG9yLWN1cnZhdHVyZT0iMCIgc3R5bGU9ImZpbGw6I0Y1ODIyMDsiIGQ9Ik0wLDYwLjE1aDIuMjh2MTMuOTlIMFY2MC4xNXoiLz4mI3hhOwkJPC9nPiYjeGE7CQk8ZyBpZD0ic2hhcGU3NDIzLTk3IiB0cmFuc2Zvcm09InRyYW5zbGF0ZSg1NS44MjcsLTMzLjYwODkpIj4mI3hhOwkJCTx0aXRsZSBpZD0idGl0bGUxMTUwNTMiPlNoZWV0Ljc0MjM8L3RpdGxlPiYjeGE7CQkJPHBhdGggaWQ9InBhdGgxMTUwNTUiIGlua3NjYXBlOmNvbm5lY3Rvci1jdXJ2YXR1cmU9IjAiIHN0eWxlPSJmaWxsOiM0N0E1QUU7IiBkPSJNMCw2NC41MmgyLjI4djkuNjJIMFY2NC41MnoiLz4mI3hhOwkJPC9nPiYjeGE7CQk8ZyBpZD0ic2hhcGU3NDI0LTk5IiB0cmFuc2Zvcm09InRyYW5zbGF0ZSg0Ni41NzkyLC0zMy42MzY5KSI+JiN4YTsJCQk8dGl0bGUgaWQ9InRpdGxlMTE1MDU4Ij5TaGVldC43NDI0PC90aXRsZT4mI3hhOwkJCTxwYXRoIGlkPSJwYXRoMTE1MDYwIiBpbmtzY2FwZTpjb25uZWN0b3ItY3VydmF0dXJlPSIwIiBzdHlsZT0iZmlsbDojQTZDRTM5OyIgZD0iTTAsNjYuNjNoMi4yOHY3LjUxSDBWNjYuNjN6Ii8+JiN4YTsJCTwvZz4mI3hhOwkJPGcgaWQ9InNoYXBlNzQyNS0xMDEiIHRyYW5zZm9ybT0idHJhbnNsYXRlKDQ2LjU3OTIsLTMzLjYzNjkpIj4mI3hhOwkJCTx0aXRsZSBpZD0idGl0bGUxMTUwNjMiPlNoZWV0Ljc0MjU8L3RpdGxlPiYjeGE7CQkJPHBhdGggaWQ9InBhdGgxMTUwNjUiIGlua3NjYXBlOmNvbm5lY3Rvci1jdXJ2YXR1cmU9IjAiIHN0eWxlPSJmaWxsOiM0N0E1QUU7IiBkPSJNMCw2OC45N2gyLjI4djUuMTdIMFY2OC45N3oiLz4mI3hhOwkJPC9nPiYjeGE7CQk8ZyBpZD0ic2hhcGU3NDI2LTEwMyIgdHJhbnNmb3JtPSJ0cmFuc2xhdGUoNDkuNjE5MywtMzMuNjM2OSkiPiYjeGE7CQkJPHRpdGxlIGlkPSJ0aXRsZTExNTA2OCI+U2hlZXQuNzQyNjwvdGl0bGU+JiN4YTsJCQk8cGF0aCBpZD0icGF0aDExNTA3MCIgaW5rc2NhcGU6Y29ubmVjdG9yLWN1cnZhdHVyZT0iMCIgc3R5bGU9ImZpbGw6I0E2Q0UzOTsiIGQ9Ik0wLDYxLjc5aDIuMjh2MTIuMzVIMFY2MS43OXoiLz4mI3hhOwkJPC9nPiYjeGE7CQk8ZyBpZD0ic2hhcGU3NDI3LTEwNSIgdHJhbnNmb3JtPSJ0cmFuc2xhdGUoNDkuNjE5MywtMzMuNjM2OSkiPiYjeGE7CQkJPHRpdGxlIGlkPSJ0aXRsZTExNTA3MyI+U2hlZXQuNzQyNzwvdGl0bGU+JiN4YTsJCQk8cGF0aCBpZD0icGF0aDExNTA3NSIgaW5rc2NhcGU6Y29ubmVjdG9yLWN1cnZhdHVyZT0iMCIgc3R5bGU9ImZpbGw6IzQ3QTVBRTsiIGQ9Ik0wLDY0LjQyaDIuMjh2OS43MkgwVjY0LjQyeiIvPiYjeGE7CQk8L2c+JiN4YTsJCTxnIGlkPSJzaGFwZTc0MjgtMTA3IiB0cmFuc2Zvcm09InRyYW5zbGF0ZSg1Mi42NTkzLC0zMy42MzY5KSI+JiN4YTsJCQk8dGl0bGUgaWQ9InRpdGxlMTE1MDc4Ij5TaGVldC43NDI4PC90aXRsZT4mI3hhOwkJCTxwYXRoIGlkPSJwYXRoMTE1MDgwIiBpbmtzY2FwZTpjb25uZWN0b3ItY3VydmF0dXJlPSIwIiBzdHlsZT0iZmlsbDojQTZDRTM5OyIgZD0iTTAsNjQuMjFoMi4yOHY5LjkzSDBWNjQuMjF6Ii8+JiN4YTsJCTwvZz4mI3hhOwkJPGcgaWQ9InNoYXBlNzQyOS0xMDkiIHRyYW5zZm9ybT0idHJhbnNsYXRlKDUyLjY1OTMsLTMzLjYzNjkpIj4mI3hhOwkJCTx0aXRsZSBpZD0idGl0bGUxMTUwODMiPlNoZWV0Ljc0Mjk8L3RpdGxlPiYjeGE7CQkJPHBhdGggaWQ9InBhdGgxMTUwODUiIGlua3NjYXBlOmNvbm5lY3Rvci1jdXJ2YXR1cmU9IjAiIHN0eWxlPSJmaWxsOiM0N0E1QUU7IiBkPSJNMCw2Ni40NGgyLjI4djcuN0gwVjY2LjQ0eiIvPiYjeGE7CQk8L2c+JiN4YTsJCTxnIGlkPSJzaGFwZTc0MzAtMTExIiB0cmFuc2Zvcm09InRyYW5zbGF0ZSg0Mi4yNTQ1LC0zOS4xNTY4KSI+JiN4YTsJCQk8dGl0bGUgaWQ9InRpdGxlMTE1MDg4Ij5TaGVldC43NDMwPC90aXRsZT4mI3hhOwkJCTxwYXRoIGlkPSJwYXRoMTE1MDkwIiBpbmtzY2FwZTpjb25uZWN0b3ItY3VydmF0dXJlPSIwIiBzdHlsZT0iZmlsbDojM0U4OUM5OyIgZD0iTTMuODMsNjkuNzNsMC4xMSwwLjFsLTMuODMsNC4zMUwwLDc0LjA0ICAgICBMMy44Myw2OS43M3oiLz4mI3hhOwkJPC9nPiYjeGE7CQk8ZyBpZD0ic2hhcGU3NDMxLTExMyIgdHJhbnNmb3JtPSJ0cmFuc2xhdGUoNDYuMDc3MywtNDEuMTA1MykiPiYjeGE7CQkJPHRpdGxlIGlkPSJ0aXRsZTExNTA5MyI+U2hlZXQuNzQzMTwvdGl0bGU+JiN4YTsJCQk8cGF0aCBpZD0icGF0aDExNTA5NSIgaW5rc2NhcGU6Y29ubmVjdG9yLWN1cnZhdHVyZT0iMCIgc3R5bGU9ImZpbGw6IzNFODlDOTsiIGQ9Ik0xLjc2LDc0LjA2bC0wLjEyLDAuMDhMMCw3MS43N2wwLjEyLTAuMDggICAgIEwxLjc2LDc0LjA2eiIvPiYjeGE7CQk8L2c+JiN4YTsJCTxnIGlkPSJzaGFwZTc0MzItMTE1IiB0cmFuc2Zvcm09InRyYW5zbGF0ZSg0Ny43MTUyLC00MS4xMTY2KSI+JiN4YTsJCQk8dGl0bGUgaWQ9InRpdGxlMTE1MDk4Ij5TaGVldC43NDMyPC90aXRsZT4mI3hhOwkJCTxwYXRoIGlkPSJwYXRoMTE1MTAwIiBpbmtzY2FwZTpjb25uZWN0b3ItY3VydmF0dXJlPSIwIiBzdHlsZT0iZmlsbDojM0U4OUM5OyIgZD0iTTMuNTgsNjYuMzlsMC4xMywwLjA2bC0zLjU4LDcuNjlMMCw3NC4wOCAgICAgTDMuNTgsNjYuMzl6Ii8+JiN4YTsJCTwvZz4mI3hhOwkJPGcgaWQ9InNoYXBlNzQzMy0xMTciIHRyYW5zZm9ybT0idHJhbnNsYXRlKDUxLjI0NjcsLTQ0LjM1NTkpIj4mI3hhOwkJCTx0aXRsZSBpZD0idGl0bGUxMTUxMDMiPlNoZWV0Ljc0MzM8L3RpdGxlPiYjeGE7CQkJPHBhdGggaWQ9InBhdGgxMTUxMDUiIGlua3NjYXBlOmNvbm5lY3Rvci1jdXJ2YXR1cmU9IjAiIHN0eWxlPSJmaWxsOiMzRTg5Qzk7IiBkPSJNMi40Miw3NC4xNGwtMC4xNy0wLjAzTDAsNjkuODlsMC4xNywwLjAzICAgICBMMi40Miw3NC4xNHoiLz4mI3hhOwkJPC9nPiYjeGE7CQk8ZyBpZD0ic2hhcGU3NDM0LTExOSIgdHJhbnNmb3JtPSJ0cmFuc2xhdGUoNTMuNjczOCwtNDMuOTQyNykiPiYjeGE7CQkJPHRpdGxlIGlkPSJ0aXRsZTExNTEwOCI+U2hlZXQuNzQzNDwvdGl0bGU+JiN4YTsJCQk8cGF0aCBpZD0icGF0aDExNTExMCIgaW5rc2NhcGU6Y29ubmVjdG9yLWN1cnZhdHVyZT0iMCIgc3R5bGU9ImZpbGw6IzNFODlDOTsiIGQ9Ik0wLjA2LDc0LjE0TDAsNzRsMy40NS01LjZsMC4wNiwwLjEzICAgICBMMC4wNiw3NC4xNHoiLz4mI3hhOwkJPC9nPiYjeGE7CQk8ZyBpZD0ic2hhcGU3NDM1LTEyMSIgdHJhbnNmb3JtPSJ0cmFuc2xhdGUoNDUuNjY3MiwtNDMuMDQ0OCkiPiYjeGE7CQkJPHRpdGxlIGlkPSJ0aXRsZTExNTExMyI+U2hlZXQuNzQzNTwvdGl0bGU+JiN4YTsJCQk8cGF0aCBpZD0icGF0aDExNTExNSIgaW5rc2NhcGU6Y29ubmVjdG9yLWN1cnZhdHVyZT0iMCIgc3R5bGU9ImZpbGw6IzNFODlDOTsiIGQ9Ik0wLjQ3LDczLjJjMC4yNiwwLDAuNDcsMC4yMSwwLjQ3LDAuNDcgICAgIHMtMC4yMSwwLjQ3LTAuNDcsMC40N1MwLDczLjkzLDAsNzMuNjdDMCw3My40MSwwLjIxLDczLjIsMC40Nyw3My4yeiIvPiYjeGE7CQk8L2c+JiN4YTsJCTxnIGlkPSJzaGFwZTc0MzYtMTIzIiB0cmFuc2Zvcm09InRyYW5zbGF0ZSg0Ny4yOTkyLC00MC44MjE3KSI+JiN4YTsJCQk8dGl0bGUgaWQ9InRpdGxlMTE1MTE4Ij5TaGVldC43NDM2PC90aXRsZT4mI3hhOwkJCTxwYXRoIGlkPSJwYXRoMTE1MTIwIiBpbmtzY2FwZTpjb25uZWN0b3ItY3VydmF0dXJlPSIwIiBzdHlsZT0iZmlsbDojM0U4OUM5OyIgZD0iTTAuNDcsNzMuMmMwLjI2LDAsMC40NywwLjIxLDAuNDcsMC40NyAgICAgcy0wLjIxLDAuNDctMC40NywwLjQ3UzAsNzMuOTMsMCw3My42N0MwLDczLjQxLDAuMjEsNzMuMiwwLjQ3LDczLjJ6Ii8+JiN4YTsJCTwvZz4mI3hhOwkJPGcgaWQ9InNoYXBlNzQzNy0xMjUiIHRyYW5zZm9ybT0idHJhbnNsYXRlKDUwLjg4NjksLTQ4LjE4ODIpIj4mI3hhOwkJCTx0aXRsZSBpZD0idGl0bGUxMTUxMjMiPlNoZWV0Ljc0Mzc8L3RpdGxlPiYjeGE7CQkJPHBhdGggaWQ9InBhdGgxMTUxMjUiIGlua3NjYXBlOmNvbm5lY3Rvci1jdXJ2YXR1cmU9IjAiIHN0eWxlPSJmaWxsOiMzRTg5Qzk7IiBkPSJNMC40Nyw3My4yYzAuMjYsMCwwLjQ3LDAuMjEsMC40NywwLjQ3ICAgICBzLTAuMjEsMC40Ny0wLjQ3LDAuNDdTMCw3My45MywwLDczLjY3QzAsNzMuNDEsMC4yMSw3My4yLDAuNDcsNzMuMnoiLz4mI3hhOwkJPC9nPiYjeGE7CQk8ZyBpZD0ic2hhcGU3NDM4LTEyNyIgdHJhbnNmb3JtPSJ0cmFuc2xhdGUoNTMuMTk1MSwtNDMuNTEzNSkiPiYjeGE7CQkJPHRpdGxlIGlkPSJ0aXRsZTExNTEyOCI+U2hlZXQuNzQzODwvdGl0bGU+JiN4YTsJCQk8cGF0aCBpZD0icGF0aDExNTEzMCIgaW5rc2NhcGU6Y29ubmVjdG9yLWN1cnZhdHVyZT0iMCIgc3R5bGU9ImZpbGw6IzNFODlDOTsiIGQ9Ik0wLjQ3LDczLjJjMC4yNiwwLDAuNDcsMC4yMSwwLjQ3LDAuNDcgICAgIHMtMC4yMSwwLjQ3LTAuNDcsMC40N1MwLDczLjkzLDAsNzMuNjdDMCw3My40MSwwLjIxLDczLjIsMC40Nyw3My4yeiIvPiYjeGE7CQk8L2c+JiN4YTsJCTxnIGlkPSJzaGFwZTc0MzktMTI5IiB0cmFuc2Zvcm09InRyYW5zbGF0ZSg1Ni42NTAzLC00OC45OTYxKSI+JiN4YTsJCQk8dGl0bGUgaWQ9InRpdGxlMTE1MTMzIj5TaGVldC43NDM5PC90aXRsZT4mI3hhOwkJCTxwYXRoIGlkPSJwYXRoMTE1MTM1IiBpbmtzY2FwZTpjb25uZWN0b3ItY3VydmF0dXJlPSIwIiBzdHlsZT0iZmlsbDojM0U4OUM5OyIgZD0iTTAuNDcsNzMuMmMwLjI2LDAsMC40NywwLjIxLDAuNDcsMC40NyAgICAgcy0wLjIxLDAuNDctMC40NywwLjQ3UzAsNzMuOTMsMCw3My42N0MwLDczLjQxLDAuMjEsNzMuMiwwLjQ3LDczLjJ6Ii8+JiN4YTsJCTwvZz4mI3hhOwkJPGcgaWQ9InNoYXBlNzQ0MC0xMzEiIHRyYW5zZm9ybT0idHJhbnNsYXRlKDQxLjc4NTQsLTM4Ljc4MzUpIj4mI3hhOwkJCTx0aXRsZSBpZD0idGl0bGUxMTUxMzgiPlNoZWV0Ljc0NDA8L3RpdGxlPiYjeGE7CQkJPHBhdGggaWQ9InBhdGgxMTUxNDAiIGlua3NjYXBlOmNvbm5lY3Rvci1jdXJ2YXR1cmU9IjAiIHN0eWxlPSJmaWxsOiMzRTg5Qzk7IiBkPSJNMC40Nyw3My4yYzAuMjYsMCwwLjQ3LDAuMjEsMC40NywwLjQ3ICAgICBzLTAuMjEsMC40Ny0wLjQ3LDAuNDdTMCw3My45MywwLDczLjY3QzAsNzMuNDEsMC4yMSw3My4yLDAuNDcsNzMuMnoiLz4mI3hhOwkJPC9nPiYjeGE7CQk8ZyBpZD0ic2hhcGU3NDQxLTEzMyIgdHJhbnNmb3JtPSJ0cmFuc2xhdGUoMi4xMDYzNSwtMjEuMTA2MikiPiYjeGE7CQkJPHRpdGxlIGlkPSJ0aXRsZTExNTE0MyI+U2hlZXQuNzQ0MTwvdGl0bGU+JiN4YTsJCQk8cmVjdCBpZD0icmVjdDExNTE0NSIgeD0iMCIgeT0iNzAuMDkiIHN0eWxlPSJmaWxsOiMxQzc1QkM7IiB3aWR0aD0iOTAuNzIiIGhlaWdodD0iNC4wNSIvPiYjeGE7CQk8L2c+JiN4YTsJPC9nPiYjeGE7PC9nPiYjeGE7PC9zdmc+;shadow=1;fontSize=20;strokeColor=#3399FF;fillColor=#CCE5FF;" parent="1" vertex="1">
          <mxGeometry x="-960.91" y="37.75000000000003" width="104.11" height="80" as="geometry" />
        </mxCell>
        <mxCell id="myoTNgwMXQTdCBW9FwJa-130" value="Public inbound internet" style="outlineConnect=0;dashed=0;verticalLabelPosition=bottom;verticalAlign=top;align=center;html=1;shape=mxgraph.aws3.internet_2;fillColor=#21C0A5;strokeColor=#006658;fontColor=#5C5C5C;" parent="1" vertex="1">
          <mxGeometry x="-620" y="37" width="79.5" height="54" as="geometry" />
        </mxCell>
        <mxCell id="myoTNgwMXQTdCBW9FwJa-132" style="edgeStyle=orthogonalEdgeStyle;rounded=0;orthogonalLoop=1;jettySize=auto;html=1;entryX=0.5;entryY=0;entryDx=0;entryDy=0;entryPerimeter=0;" parent="1" source="myoTNgwMXQTdCBW9FwJa-37" target="myoTNgwMXQTdCBW9FwJa-105" edge="1">
          <mxGeometry relative="1" as="geometry">
            <Array as="points">
              <mxPoint x="80" y="76" />
              <mxPoint x="80" y="-220" />
              <mxPoint x="559" y="-220" />
            </Array>
          </mxGeometry>
        </mxCell>
        <mxCell id="myoTNgwMXQTdCBW9FwJa-136" value="Public outbound internet&lt;br&gt;(list site outbound for install/update&lt;br&gt;&amp;nbsp;OS/system software)" style="outlineConnect=0;dashed=0;verticalLabelPosition=bottom;verticalAlign=top;align=center;html=1;shape=mxgraph.aws3.internet_2;fillColor=#21C0A5;strokeColor=#006658;fontColor=#5C5C5C;" parent="1" vertex="1">
          <mxGeometry x="-630" y="200" width="79.5" height="54" as="geometry" />
        </mxCell>
        <mxCell id="myoTNgwMXQTdCBW9FwJa-137" style="edgeStyle=orthogonalEdgeStyle;rounded=0;orthogonalLoop=1;jettySize=auto;html=1;entryX=1;entryY=0.7;entryDx=0;entryDy=0;entryPerimeter=0;" parent="1" source="myoTNgwMXQTdCBW9FwJa-84" target="myoTNgwMXQTdCBW9FwJa-136" edge="1">
          <mxGeometry relative="1" as="geometry" />
        </mxCell>
        <mxCell id="x4hi2wNax1b352Cjvb6P-1" value="Bảo mật thông tin bản vẽ" style="text;html=1;strokeColor=none;fillColor=none;align=center;verticalAlign=middle;whiteSpace=wrap;rounded=0;" vertex="1" parent="1">
          <mxGeometry x="-1311" y="-570" width="140" height="30" as="geometry" />
        </mxCell>
        <mxCell id="x4hi2wNax1b352Cjvb6P-2" value="Bảo mật thông tin bản vẽ" style="text;html=1;strokeColor=none;fillColor=none;align=center;verticalAlign=middle;whiteSpace=wrap;rounded=0;" vertex="1" parent="1">
          <mxGeometry x="1241" y="880" width="140" height="30" as="geometry" />
        </mxCell>
      </root>
    </mxGraphModel>
  </diagram>
</mxfile>
